<?xml version="1.0" encoding="UTF-8" standalone="no"?>
<svg
   version="1.1"
   width="500"
   height="500"
   id="svg59"
   sodipodi:docname="Copy of IEEE_RVU_LOGO_APOORV (1).svg"
   xmlns:inkscape="http://www.inkscape.org/namespaces/inkscape"
   xmlns:sodipodi="http://sodipodi.sourceforge.net/DTD/sodipodi-0.dtd"
   xmlns="http://www.w3.org/2000/svg"
   xmlns:svg="http://www.w3.org/2000/svg">
  <defs
     id="defs59" />
  <sodipodi:namedview
     id="namedview59"
     pagecolor="#ffffff"
     bordercolor="#000000"
     borderopacity="0.25"
     inkscape:showpageshadow="2"
     inkscape:pageopacity="0.0"
     inkscape:pagecheckerboard="0"
     inkscape:deskcolor="#d1d1d1" />
  <path
     d="M0,0 L500,0 L500,500 L0,500 Z "
     fill="#FEFEFE"
     transform="translate(0,0)"
     id="path1" />
  <path
     d="M0,0 L1,0 L1,1 L2,1 L2,2 L3,2 L3,3 L4,3 L4,4 L5,4 L5,5 L6,5 L6,6 L7,6 L7,7 L8,7 L8,8 L9,8 L9,9 L10,9 L10,10 L11,10 L11,11 L12,11 L12,12 L13,12 L13,13 L15,13 L15,14 L16,14 L16,15 L17,15 L17,16 L18,16 L18,17 L19,17 L19,18 L20,18 L20,19 L21,19 L21,20 L22,20 L22,21 L23,21 L23,22 L24,22 L24,23 L25,23 L25,24 L26,24 L26,25 L27,25 L27,26 L28,26 L28,27 L29,27 L29,28 L30,28 L30,29 L31,29 L31,30 L32,30 L32,31 L33,31 L33,32 L34,32 L34,33 L35,33 L35,34 L36,34 L36,35 L37,35 L37,36 L38,36 L38,37 L39,37 L39,38 L40,38 L40,39 L41,39 L41,40 L42,40 L42,41 L45,41 L45,40 L46,40 L46,39 L47,39 L47,38 L48,38 L48,37 L49,37 L49,36 L50,36 L50,35 L51,35 L51,34 L52,34 L52,33 L53,33 L53,32 L54,32 L54,31 L55,31 L55,30 L56,30 L56,29 L57,29 L57,28 L58,28 L58,27 L59,27 L59,26 L60,26 L60,25 L61,25 L61,24 L62,24 L62,23 L63,23 L63,22 L65,22 L65,23 L66,23 L66,24 L67,24 L67,25 L68,25 L68,26 L69,26 L69,27 L70,27 L70,28 L71,28 L71,29 L72,29 L72,30 L73,30 L73,31 L74,31 L74,32 L75,32 L75,33 L76,33 L76,34 L77,34 L77,35 L78,35 L78,36 L79,36 L79,37 L80,37 L80,38 L81,38 L81,39 L82,39 L82,40 L83,40 L83,41 L84,41 L84,42 L85,42 L85,41 L86,41 L86,40 L87,40 L87,39 L88,39 L88,38 L89,38 L89,37 L90,37 L90,36 L91,36 L91,35 L92,35 L92,34 L93,34 L93,33 L94,33 L94,32 L95,32 L95,31 L96,31 L96,30 L97,30 L97,29 L98,29 L98,28 L99,28 L99,27 L100,27 L100,26 L101,26 L101,25 L102,25 L102,24 L103,24 L103,23 L104,23 L104,22 L105,22 L105,21 L106,21 L106,20 L107,20 L107,19 L108,19 L108,18 L109,18 L109,17 L110,17 L110,16 L111,16 L111,15 L113,15 L113,14 L114,14 L114,13 L115,13 L115,12 L116,12 L116,11 L117,11 L117,10 L118,10 L118,9 L119,9 L119,8 L120,8 L120,7 L121,7 L121,6 L122,6 L122,5 L123,5 L123,4 L124,4 L124,3 L125,3 L125,2 L126,2 L126,1 L127,1 L127,0 L128,0 L128,87 L215,87 L215,88 L214,88 L214,89 L213,89 L213,90 L212,90 L212,91 L211,91 L211,92 L210,92 L210,93 L209,93 L209,94 L208,94 L208,96 L207,96 L207,97 L206,97 L206,98 L205,98 L205,99 L204,99 L204,100 L203,100 L203,101 L202,101 L202,102 L201,102 L201,103 L200,103 L200,104 L199,104 L199,105 L198,105 L198,106 L197,106 L197,107 L196,107 L196,108 L195,108 L195,109 L194,109 L194,110 L193,110 L193,111 L192,111 L192,112 L191,112 L191,113 L190,113 L190,114 L189,114 L189,115 L188,115 L188,116 L187,116 L187,117 L186,117 L186,118 L185,118 L185,119 L184,119 L184,120 L183,120 L183,121 L182,121 L182,122 L181,122 L181,123 L180,123 L180,124 L179,124 L179,125 L178,125 L178,126 L177,126 L177,127 L176,127 L176,129 L175,129 L175,130 L174,130 L174,132 L175,132 L175,133 L176,133 L176,134 L177,134 L177,135 L178,135 L178,136 L179,136 L179,137 L180,137 L180,138 L181,138 L181,139 L182,139 L182,140 L183,140 L183,141 L184,141 L184,142 L185,142 L185,143 L186,143 L186,144 L187,144 L187,145 L188,145 L188,146 L189,146 L189,147 L190,147 L190,148 L191,148 L191,149 L192,149 L192,150 L193,150 L193,153 L192,153 L192,154 L191,154 L191,155 L190,155 L190,156 L189,156 L189,157 L188,157 L188,158 L187,158 L187,159 L186,159 L186,160 L185,160 L185,161 L184,161 L184,162 L183,162 L183,163 L182,163 L182,164 L181,164 L181,165 L180,165 L180,166 L179,166 L179,167 L178,167 L178,168 L177,168 L177,169 L176,169 L176,170 L175,170 L175,171 L174,171 L174,173 L175,173 L175,174 L176,174 L176,175 L177,175 L177,176 L178,176 L178,177 L179,177 L179,178 L180,178 L180,179 L181,179 L181,180 L182,180 L182,181 L183,181 L183,182 L184,182 L184,183 L185,183 L185,184 L186,184 L186,185 L187,185 L187,186 L188,186 L188,187 L189,187 L189,188 L190,188 L190,189 L191,189 L191,190 L192,190 L192,192 L193,192 L193,193 L194,193 L194,194 L195,194 L195,195 L196,195 L196,196 L197,196 L197,197 L198,197 L198,198 L199,198 L199,199 L200,199 L200,200 L201,200 L201,201 L202,201 L202,202 L203,202 L203,203 L204,203 L204,204 L205,204 L205,205 L206,205 L206,206 L207,206 L207,207 L208,207 L208,208 L209,208 L209,209 L210,209 L210,210 L211,210 L211,211 L212,211 L212,212 L213,212 L213,213 L214,213 L214,214 L215,214 L215,215 L216,215 L216,216 L138,216 L138,217 L139,217 L139,218 L140,218 L140,219 L141,219 L141,220 L142,220 L142,221 L143,221 L143,222 L144,222 L144,223 L145,223 L145,224 L146,224 L146,225 L147,225 L147,226 L148,226 L148,227 L149,227 L149,228 L150,228 L150,229 L151,229 L151,230 L152,230 L152,231 L153,231 L153,232 L154,232 L154,233 L155,233 L155,234 L156,234 L156,235 L157,235 L157,236 L158,236 L158,237 L159,237 L159,238 L160,238 L160,239 L161,239 L161,240 L162,240 L162,241 L163,241 L163,242 L164,242 L164,243 L165,243 L165,244 L166,244 L166,245 L167,245 L167,246 L168,246 L168,247 L169,247 L169,248 L170,248 L170,249 L171,249 L171,250 L172,250 L172,251 L173,251 L173,252 L174,252 L174,253 L175,253 L175,254 L176,254 L176,255 L177,255 L177,256 L178,256 L178,257 L179,257 L179,258 L180,258 L180,259 L181,259 L181,260 L182,260 L182,261 L183,261 L183,262 L184,262 L184,263 L185,263 L185,264 L186,264 L186,265 L187,265 L187,266 L188,266 L188,267 L189,267 L189,268 L190,268 L190,269 L191,269 L191,270 L192,270 L192,271 L193,271 L193,272 L194,272 L194,273 L195,273 L195,274 L196,274 L196,275 L197,275 L197,276 L198,276 L198,277 L199,277 L199,278 L200,278 L200,279 L201,279 L201,280 L202,280 L202,281 L203,281 L203,282 L204,282 L204,283 L205,283 L205,284 L206,284 L206,285 L207,285 L207,286 L208,286 L208,287 L209,287 L209,288 L210,288 L210,289 L211,289 L211,290 L212,290 L212,291 L213,291 L213,292 L214,292 L214,293 L215,293 L215,294 L216,294 L216,295 L217,295 L217,296 L218,296 L218,297 L219,297 L219,298 L220,298 L220,299 L221,299 L221,300 L222,300 L222,301 L223,301 L223,302 L224,302 L224,303 L225,303 L225,304 L226,304 L226,305 L227,305 L227,306 L228,306 L228,307 L229,307 L229,308 L230,308 L230,309 L231,309 L231,310 L232,310 L232,311 L233,311 L233,312 L234,312 L234,313 L235,313 L235,314 L236,314 L236,315 L237,315 L237,316 L238,316 L238,317 L239,317 L239,318 L240,318 L240,319 L241,319 L241,320 L242,320 L242,323 L241,323 L241,324 L240,324 L240,325 L239,325 L239,326 L238,326 L238,327 L237,327 L237,328 L236,328 L236,329 L235,329 L235,330 L234,330 L234,331 L233,331 L233,332 L232,332 L232,333 L231,333 L231,334 L230,334 L230,335 L229,335 L229,336 L228,336 L228,337 L227,337 L227,338 L226,338 L226,339 L225,339 L225,340 L224,340 L224,341 L223,341 L223,342 L222,342 L222,343 L221,343 L221,344 L220,344 L220,345 L219,345 L219,346 L218,346 L218,347 L217,347 L217,348 L216,348 L216,349 L215,349 L215,350 L214,350 L214,351 L213,351 L213,352 L212,352 L212,353 L211,353 L211,354 L210,354 L210,355 L209,355 L209,356 L208,356 L208,357 L207,357 L207,358 L206,358 L206,359 L205,359 L205,360 L204,360 L204,361 L203,361 L203,362 L202,362 L202,363 L201,363 L201,364 L200,364 L200,365 L199,365 L199,366 L198,366 L198,367 L197,367 L197,368 L196,368 L196,369 L195,369 L195,370 L194,370 L194,371 L193,371 L193,372 L192,372 L192,373 L191,373 L191,374 L190,374 L190,375 L189,375 L189,376 L188,376 L188,377 L187,377 L187,378 L186,378 L186,379 L185,379 L185,380 L184,380 L184,381 L183,381 L183,382 L182,382 L182,383 L181,383 L181,384 L180,384 L180,385 L179,385 L179,386 L178,386 L178,387 L177,387 L177,388 L176,388 L176,389 L175,389 L175,390 L174,390 L174,391 L173,391 L173,392 L172,392 L172,393 L171,393 L171,394 L170,394 L170,395 L169,395 L169,396 L168,396 L168,397 L167,397 L167,398 L166,398 L166,399 L165,399 L165,400 L164,400 L164,401 L163,401 L163,402 L162,402 L162,403 L161,403 L161,404 L160,404 L160,405 L159,405 L159,406 L158,406 L158,407 L157,407 L157,408 L156,408 L156,409 L155,409 L155,410 L154,410 L154,411 L153,411 L153,412 L152,412 L152,413 L151,413 L151,414 L150,414 L150,415 L149,415 L149,416 L148,416 L148,417 L147,417 L147,418 L146,418 L146,419 L145,419 L145,420 L144,420 L144,421 L143,421 L143,422 L142,422 L142,423 L141,423 L141,424 L140,424 L140,425 L139,425 L139,426 L138,426 L138,427 L137,427 L137,428 L136,428 L136,429 L135,429 L135,430 L134,430 L134,431 L133,431 L133,432 L132,432 L132,433 L131,433 L131,434 L130,434 L130,435 L129,435 L129,436 L128,436 L128,437 L127,437 L127,438 L126,438 L126,439 L125,439 L125,440 L124,440 L124,441 L123,441 L123,442 L122,442 L122,443 L121,443 L121,444 L120,444 L120,445 L119,445 L119,446 L118,446 L118,447 L117,447 L117,448 L116,448 L116,449 L115,449 L115,450 L114,450 L114,451 L113,451 L113,452 L112,452 L112,453 L111,453 L111,454 L110,454 L110,455 L109,455 L109,456 L108,456 L108,457 L107,457 L107,458 L106,458 L106,459 L105,459 L105,460 L104,460 L104,461 L103,461 L103,462 L102,462 L102,463 L101,463 L101,464 L100,464 L100,465 L99,465 L99,466 L98,466 L98,467 L97,467 L97,468 L96,468 L96,469 L95,469 L95,470 L94,470 L94,471 L93,471 L93,472 L92,472 L92,473 L91,473 L91,474 L90,474 L90,475 L89,475 L89,476 L88,476 L88,477 L87,477 L87,478 L86,478 L86,479 L85,479 L85,480 L84,480 L84,481 L83,481 L83,482 L82,482 L82,483 L81,483 L81,484 L80,484 L80,485 L79,485 L79,486 L78,486 L78,487 L77,487 L77,488 L76,488 L76,489 L75,489 L75,490 L74,490 L74,491 L73,491 L73,492 L72,492 L72,493 L71,493 L71,494 L70,494 L70,495 L69,495 L69,496 L68,496 L68,497 L67,497 L67,498 L64,498 L64,497 L63,497 L63,496 L62,496 L62,495 L61,495 L61,494 L60,494 L60,493 L59,493 L59,492 L58,492 L58,491 L57,491 L57,490 L56,490 L56,489 L55,489 L55,488 L54,488 L54,487 L53,487 L53,486 L52,486 L52,485 L51,485 L51,484 L50,484 L50,483 L49,483 L49,482 L48,482 L48,481 L47,481 L47,480 L46,480 L46,479 L45,479 L45,478 L44,478 L44,477 L43,477 L43,476 L42,476 L42,475 L41,475 L41,474 L40,474 L40,473 L39,473 L39,472 L38,472 L38,471 L37,471 L37,470 L36,470 L36,469 L35,469 L35,468 L34,468 L34,467 L33,467 L33,466 L32,466 L32,465 L31,465 L31,464 L30,464 L30,463 L29,463 L29,462 L28,462 L28,461 L27,461 L27,460 L26,460 L26,459 L25,459 L25,458 L24,458 L24,457 L23,457 L23,456 L22,456 L22,455 L21,455 L21,454 L20,454 L20,453 L19,453 L19,452 L18,452 L18,451 L17,451 L17,450 L16,450 L16,449 L15,449 L15,448 L14,448 L14,447 L13,447 L13,446 L12,446 L12,445 L11,445 L11,444 L10,444 L10,443 L9,443 L9,442 L8,442 L8,441 L7,441 L7,440 L6,440 L6,439 L5,439 L5,438 L4,438 L4,437 L3,437 L3,436 L2,436 L2,435 L1,435 L1,434 L0,434 L0,433 L-1,433 L-1,432 L-2,432 L-2,431 L-3,431 L-3,430 L-4,430 L-4,429 L-5,429 L-5,428 L-6,428 L-6,427 L-7,427 L-7,426 L-8,426 L-8,425 L-9,425 L-9,424 L-10,424 L-10,423 L-11,423 L-11,422 L-12,422 L-12,421 L-13,421 L-13,420 L-14,420 L-14,419 L-15,419 L-15,418 L-16,418 L-16,417 L-17,417 L-17,416 L-18,416 L-18,415 L-19,415 L-19,414 L-20,414 L-20,413 L-21,413 L-21,412 L-22,412 L-22,411 L-23,411 L-23,410 L-24,410 L-24,409 L-25,409 L-25,408 L-26,408 L-26,407 L-27,407 L-27,406 L-28,406 L-28,405 L-29,405 L-29,404 L-30,404 L-30,403 L-31,403 L-31,402 L-32,402 L-32,401 L-33,401 L-33,400 L-34,400 L-34,399 L-35,399 L-35,398 L-36,398 L-36,397 L-37,397 L-37,396 L-38,396 L-38,395 L-39,395 L-39,394 L-40,394 L-40,393 L-41,393 L-41,392 L-42,392 L-42,391 L-43,391 L-43,390 L-44,390 L-44,389 L-45,389 L-45,388 L-46,388 L-46,387 L-47,387 L-47,386 L-48,386 L-48,385 L-49,385 L-49,384 L-50,384 L-50,383 L-51,383 L-51,382 L-52,382 L-52,381 L-53,381 L-53,380 L-54,380 L-54,379 L-55,379 L-55,378 L-56,378 L-56,377 L-57,377 L-57,376 L-58,376 L-58,375 L-59,375 L-59,374 L-60,374 L-60,373 L-61,373 L-61,372 L-62,372 L-62,371 L-63,371 L-63,370 L-64,370 L-64,369 L-65,369 L-65,368 L-66,368 L-66,367 L-67,367 L-67,366 L-68,366 L-68,365 L-69,365 L-69,364 L-70,364 L-70,363 L-71,363 L-71,362 L-72,362 L-72,361 L-73,361 L-73,360 L-74,360 L-74,359 L-75,359 L-75,358 L-76,358 L-76,357 L-77,357 L-77,356 L-78,356 L-78,355 L-79,355 L-79,354 L-80,354 L-80,353 L-81,353 L-81,352 L-82,352 L-82,351 L-83,351 L-83,350 L-84,350 L-84,349 L-85,349 L-85,348 L-86,348 L-86,347 L-87,347 L-87,346 L-88,346 L-88,345 L-89,345 L-89,344 L-90,344 L-90,343 L-91,343 L-91,342 L-92,342 L-92,341 L-93,341 L-93,340 L-94,340 L-94,339 L-95,339 L-95,338 L-96,338 L-96,337 L-97,337 L-97,336 L-98,336 L-98,335 L-99,335 L-99,334 L-100,334 L-100,333 L-101,333 L-101,332 L-102,332 L-102,331 L-103,331 L-103,330 L-104,330 L-104,329 L-105,329 L-105,328 L-106,328 L-106,327 L-107,327 L-107,326 L-108,326 L-108,325 L-109,325 L-109,324 L-110,324 L-110,323 L-112,323 L-112,320 L-111,320 L-111,319 L-110,319 L-110,318 L-109,318 L-109,317 L-108,317 L-108,316 L-107,316 L-107,315 L-106,315 L-106,314 L-105,314 L-105,313 L-104,313 L-104,312 L-103,312 L-103,311 L-102,311 L-102,310 L-101,310 L-101,309 L-100,309 L-100,308 L-99,308 L-99,307 L-98,307 L-98,306 L-97,306 L-97,305 L-96,305 L-96,304 L-95,304 L-95,303 L-94,303 L-94,302 L-93,302 L-93,301 L-92,301 L-92,300 L-91,300 L-91,299 L-90,299 L-90,298 L-89,298 L-89,297 L-88,297 L-88,296 L-87,296 L-87,295 L-86,295 L-86,294 L-85,294 L-85,293 L-84,293 L-84,292 L-83,292 L-83,291 L-82,291 L-82,290 L-81,290 L-81,289 L-80,289 L-80,288 L-79,288 L-79,287 L-78,287 L-78,286 L-77,286 L-77,285 L-76,285 L-76,284 L-75,284 L-75,283 L-74,283 L-74,282 L-73,282 L-73,281 L-72,281 L-72,280 L-71,280 L-71,279 L-70,279 L-70,278 L-69,278 L-69,277 L-68,277 L-68,276 L-67,276 L-67,275 L-66,275 L-66,274 L-65,274 L-65,273 L-64,273 L-64,272 L-63,272 L-63,271 L-62,271 L-62,270 L-61,270 L-61,269 L-60,269 L-60,268 L-59,268 L-59,267 L-58,267 L-58,266 L-57,266 L-57,265 L-56,265 L-56,264 L-55,264 L-55,263 L-54,263 L-54,262 L-53,262 L-53,261 L-52,261 L-52,260 L-51,260 L-51,259 L-50,259 L-50,258 L-49,258 L-49,257 L-48,257 L-48,256 L-47,256 L-47,255 L-46,255 L-46,254 L-45,254 L-45,253 L-44,253 L-44,252 L-43,252 L-43,251 L-42,251 L-42,250 L-41,250 L-41,249 L-40,249 L-40,248 L-39,248 L-39,247 L-38,247 L-38,246 L-37,246 L-37,245 L-36,245 L-36,244 L-35,244 L-35,243 L-34,243 L-34,242 L-33,242 L-33,241 L-32,241 L-32,240 L-31,240 L-31,239 L-30,239 L-30,238 L-29,238 L-29,237 L-28,237 L-28,236 L-27,236 L-27,235 L-26,235 L-26,234 L-25,234 L-25,233 L-24,233 L-24,232 L-23,232 L-23,231 L-22,231 L-22,230 L-21,230 L-21,229 L-20,229 L-20,228 L-19,228 L-19,227 L-18,227 L-18,226 L-17,226 L-17,225 L-16,225 L-16,224 L-15,224 L-15,223 L-14,223 L-14,222 L-13,222 L-13,221 L-12,221 L-12,220 L-11,220 L-11,219 L-10,219 L-10,218 L-86,218 L-86,217 L-85,217 L-85,216 L-84,216 L-84,215 L-83,215 L-83,214 L-82,214 L-82,213 L-81,213 L-81,212 L-80,212 L-80,211 L-79,211 L-79,210 L-78,210 L-78,209 L-77,209 L-77,208 L-76,208 L-76,207 L-75,207 L-75,206 L-74,206 L-74,205 L-73,205 L-73,204 L-72,204 L-72,203 L-71,203 L-71,202 L-70,202 L-70,201 L-69,201 L-69,200 L-68,200 L-68,198 L-67,198 L-67,197 L-66,197 L-66,196 L-65,196 L-65,195 L-64,195 L-64,194 L-63,194 L-63,193 L-62,193 L-62,192 L-61,192 L-61,191 L-60,191 L-60,190 L-59,190 L-59,189 L-58,189 L-58,188 L-57,188 L-57,187 L-56,187 L-56,186 L-55,186 L-55,185 L-54,185 L-54,184 L-53,184 L-53,183 L-52,183 L-52,182 L-51,182 L-51,181 L-50,181 L-50,180 L-49,180 L-49,179 L-48,179 L-48,178 L-47,178 L-47,177 L-46,177 L-46,176 L-45,176 L-45,173 L-46,173 L-46,172 L-47,172 L-47,171 L-48,171 L-48,170 L-49,170 L-49,169 L-50,169 L-50,168 L-51,168 L-51,167 L-52,167 L-52,166 L-53,166 L-53,165 L-54,165 L-54,164 L-55,164 L-55,163 L-56,163 L-56,162 L-57,162 L-57,161 L-58,161 L-58,160 L-59,160 L-59,159 L-60,159 L-60,158 L-61,158 L-61,157 L-62,157 L-62,156 L-63,156 L-63,155 L-64,155 L-64,154 L-65,154 L-65,153 L-64,153 L-64,152 L-63,152 L-63,151 L-62,151 L-62,150 L-61,150 L-61,149 L-60,149 L-60,148 L-59,148 L-59,147 L-58,147 L-58,146 L-57,146 L-57,145 L-56,145 L-56,144 L-55,144 L-55,143 L-54,143 L-54,141 L-53,141 L-53,140 L-52,140 L-52,139 L-51,139 L-51,138 L-50,138 L-50,137 L-49,137 L-49,136 L-48,136 L-48,135 L-47,135 L-47,134 L-46,134 L-46,133 L-45,133 L-45,131 L-46,131 L-46,130 L-47,130 L-47,129 L-48,129 L-48,128 L-49,128 L-49,127 L-50,127 L-50,126 L-51,126 L-51,125 L-52,125 L-52,124 L-53,124 L-53,123 L-54,123 L-54,122 L-55,122 L-55,121 L-56,121 L-56,120 L-57,120 L-57,119 L-58,119 L-58,118 L-59,118 L-59,117 L-60,117 L-60,116 L-61,116 L-61,115 L-62,115 L-62,114 L-63,114 L-63,113 L-64,113 L-64,112 L-65,112 L-65,110 L-66,110 L-66,109 L-67,109 L-67,108 L-68,108 L-68,107 L-69,107 L-69,106 L-70,106 L-70,105 L-71,105 L-71,104 L-72,104 L-72,103 L-73,103 L-73,102 L-74,102 L-74,101 L-75,101 L-75,100 L-76,100 L-76,99 L-77,99 L-77,98 L-78,98 L-78,97 L-79,97 L-79,96 L-80,96 L-80,95 L-81,95 L-81,94 L-82,94 L-82,93 L-83,93 L-83,92 L-84,92 L-84,91 L-85,91 L-85,90 L-86,90 L-86,89 L0,89 Z "
     fill="#127870"
     transform="translate(185,1)"
     id="path2" />
  <path
     d="M0,0 L1,0 L1,1 L2,1 L2,2 L3,2 L3,3 L4,3 L4,4 L5,4 L5,5 L6,5 L6,6 L7,6 L7,7 L8,7 L8,8 L9,8 L9,9 L10,9 L10,10 L11,10 L11,11 L12,11 L12,12 L13,12 L13,13 L15,13 L15,14 L16,14 L16,15 L17,15 L17,16 L18,16 L18,17 L19,17 L19,18 L20,18 L20,19 L21,19 L21,20 L22,20 L22,21 L23,21 L23,22 L24,22 L24,23 L25,23 L25,24 L26,24 L26,25 L27,25 L27,26 L28,26 L28,27 L29,27 L29,28 L30,28 L30,29 L31,29 L31,30 L32,30 L32,31 L33,31 L33,32 L34,32 L34,33 L35,33 L35,34 L36,34 L36,35 L37,35 L37,36 L38,36 L38,37 L39,37 L39,38 L40,38 L40,39 L41,39 L41,40 L42,40 L42,41 L45,41 L45,40 L46,40 L46,39 L47,39 L47,38 L48,38 L48,37 L49,37 L49,36 L50,36 L50,35 L51,35 L51,34 L52,34 L52,33 L53,33 L53,32 L54,32 L54,31 L55,31 L55,30 L56,30 L56,29 L57,29 L57,28 L58,28 L58,27 L59,27 L59,26 L60,26 L60,25 L61,25 L61,24 L62,24 L62,23 L63,23 L63,22 L65,22 L65,23 L66,23 L66,24 L67,24 L67,25 L68,25 L68,26 L69,26 L69,27 L70,27 L70,28 L71,28 L71,29 L72,29 L72,30 L73,30 L73,31 L74,31 L74,32 L75,32 L75,33 L76,33 L76,34 L77,34 L77,35 L78,35 L78,36 L79,36 L79,37 L80,37 L80,38 L81,38 L81,39 L82,39 L82,40 L83,40 L83,41 L84,41 L84,42 L85,42 L85,41 L86,41 L86,40 L87,40 L87,39 L88,39 L88,38 L89,38 L89,37 L90,37 L90,36 L91,36 L91,35 L92,35 L92,34 L93,34 L93,33 L94,33 L94,32 L95,32 L95,31 L96,31 L96,30 L97,30 L97,29 L98,29 L98,28 L99,28 L99,27 L100,27 L100,26 L101,26 L101,25 L102,25 L102,24 L103,24 L103,23 L104,23 L104,22 L105,22 L105,21 L106,21 L106,20 L107,20 L107,19 L108,19 L108,18 L109,18 L109,17 L110,17 L110,16 L111,16 L111,15 L113,15 L113,14 L114,14 L114,13 L115,13 L115,12 L116,12 L116,11 L117,11 L117,10 L118,10 L118,9 L119,9 L119,8 L120,8 L120,7 L121,7 L121,6 L122,6 L122,5 L123,5 L123,4 L124,4 L124,3 L125,3 L125,2 L126,2 L126,1 L127,1 L127,0 L128,0 L128,87 L215,87 L215,88 L214,88 L214,89 L213,89 L213,90 L212,90 L212,91 L211,91 L211,92 L210,92 L210,93 L209,93 L209,94 L208,94 L208,96 L207,96 L207,97 L206,97 L206,98 L205,98 L205,99 L204,99 L204,100 L203,100 L203,101 L202,101 L202,102 L201,102 L201,103 L200,103 L200,104 L199,104 L199,105 L198,105 L198,106 L197,106 L197,107 L196,107 L196,108 L195,108 L195,109 L194,109 L194,110 L193,110 L193,111 L192,111 L192,112 L191,112 L191,113 L190,113 L190,114 L189,114 L189,115 L188,115 L188,116 L187,116 L187,117 L186,117 L186,118 L185,118 L185,119 L184,119 L184,120 L183,120 L183,121 L182,121 L182,122 L181,122 L181,123 L180,123 L180,124 L179,124 L179,125 L178,125 L178,126 L177,126 L177,127 L176,127 L176,129 L175,129 L175,130 L174,130 L174,132 L175,132 L175,133 L176,133 L176,134 L177,134 L177,135 L178,135 L178,136 L179,136 L179,137 L180,137 L180,138 L181,138 L181,139 L182,139 L182,140 L183,140 L183,141 L184,141 L184,142 L185,142 L185,143 L186,143 L186,144 L187,144 L187,145 L188,145 L188,146 L189,146 L189,147 L190,147 L190,148 L191,148 L191,149 L192,149 L192,150 L193,150 L193,153 L192,153 L192,154 L191,154 L191,155 L190,155 L190,156 L189,156 L189,157 L188,157 L188,158 L187,158 L187,159 L186,159 L186,160 L185,160 L185,161 L184,161 L184,162 L183,162 L183,163 L182,163 L182,164 L181,164 L181,165 L180,165 L180,166 L179,166 L179,167 L178,167 L178,168 L177,168 L177,169 L176,169 L176,170 L175,170 L175,171 L174,171 L174,173 L175,173 L175,174 L176,174 L176,175 L177,175 L177,176 L178,176 L178,177 L179,177 L179,178 L180,178 L180,179 L181,179 L181,180 L182,180 L182,181 L183,181 L183,182 L184,182 L184,183 L185,183 L185,184 L186,184 L186,185 L187,185 L187,186 L188,186 L188,187 L189,187 L189,188 L190,188 L190,189 L191,189 L191,190 L192,190 L192,192 L193,192 L193,193 L194,193 L194,194 L195,194 L195,195 L196,195 L196,196 L197,196 L197,197 L198,197 L198,198 L199,198 L199,199 L200,199 L200,200 L201,200 L201,201 L202,201 L202,202 L203,202 L203,203 L204,203 L204,204 L205,204 L205,205 L206,205 L206,206 L207,206 L207,207 L208,207 L208,208 L209,208 L209,209 L210,209 L210,210 L211,210 L211,211 L212,211 L212,212 L213,212 L213,213 L214,213 L214,214 L215,214 L215,215 L216,215 L216,216 L137,216 L137,215 L136,215 L136,214 L135,214 L135,213 L134,213 L134,212 L133,212 L133,211 L132,211 L132,210 L131,210 L131,209 L130,209 L130,208 L129,208 L129,207 L128,207 L128,206 L127,206 L127,205 L126,205 L126,204 L125,204 L125,203 L124,203 L124,202 L123,202 L123,201 L122,201 L122,200 L121,200 L121,199 L120,199 L120,198 L119,198 L119,197 L118,197 L118,196 L117,196 L117,195 L116,195 L116,194 L115,194 L115,193 L114,193 L114,192 L113,192 L113,191 L112,191 L112,190 L111,190 L111,189 L110,189 L110,188 L109,188 L109,187 L108,187 L108,186 L107,186 L107,185 L106,185 L106,184 L105,184 L105,183 L104,183 L104,182 L103,182 L103,181 L102,181 L102,180 L101,180 L101,179 L100,179 L100,178 L99,178 L99,177 L98,177 L98,176 L97,176 L97,175 L96,175 L96,174 L95,174 L95,173 L94,173 L94,172 L93,172 L93,171 L94,171 L94,170 L95,170 L95,169 L96,169 L96,168 L97,168 L97,166 L98,166 L98,165 L99,165 L99,163 L100,163 L100,161 L101,161 L101,159 L102,159 L102,157 L103,157 L103,153 L104,153 L104,134 L103,134 L103,131 L102,131 L102,129 L101,129 L101,126 L100,126 L100,125 L99,125 L99,123 L98,123 L98,121 L97,121 L97,120 L96,120 L96,119 L95,119 L95,117 L94,117 L94,116 L93,116 L93,115 L92,115 L92,114 L90,114 L90,113 L89,113 L89,112 L88,112 L88,111 L86,111 L86,110 L85,110 L85,109 L83,109 L83,108 L80,108 L80,107 L78,107 L78,106 L76,106 L76,105 L70,105 L70,104 L60,104 L60,105 L55,105 L55,106 L51,106 L51,107 L49,107 L49,108 L47,108 L47,109 L45,109 L45,110 L44,110 L44,111 L42,111 L42,112 L41,112 L41,113 L40,113 L40,114 L39,114 L39,115 L38,115 L38,116 L37,116 L37,117 L36,117 L36,118 L35,118 L35,119 L34,119 L34,120 L33,120 L33,122 L32,122 L32,123 L31,123 L31,125 L30,125 L30,127 L29,127 L29,129 L28,129 L28,131 L27,131 L27,135 L26,135 L26,153 L27,153 L27,156 L28,156 L28,159 L29,159 L29,161 L30,161 L30,163 L31,163 L31,164 L32,164 L32,166 L33,166 L33,167 L34,167 L34,169 L35,169 L35,170 L36,170 L36,171 L37,171 L37,173 L36,173 L36,174 L35,174 L35,175 L34,175 L34,176 L33,176 L33,177 L32,177 L32,178 L31,178 L31,179 L30,179 L30,180 L29,180 L29,181 L28,181 L28,182 L27,182 L27,183 L26,183 L26,184 L25,184 L25,185 L24,185 L24,186 L23,186 L23,187 L22,187 L22,188 L21,188 L21,189 L20,189 L20,190 L19,190 L19,191 L18,191 L18,192 L17,192 L17,193 L16,193 L16,194 L15,194 L15,195 L14,195 L14,196 L13,196 L13,197 L12,197 L12,198 L11,198 L11,199 L10,199 L10,200 L9,200 L9,201 L8,201 L8,202 L7,202 L7,203 L6,203 L6,204 L5,204 L5,205 L4,205 L4,206 L3,206 L3,207 L2,207 L2,208 L0,208 L0,209 L-1,209 L-1,210 L-2,210 L-2,211 L-3,211 L-3,212 L-4,212 L-4,213 L-5,213 L-5,214 L-6,214 L-6,215 L-7,215 L-7,216 L-8,216 L-8,217 L-9,217 L-9,218 L-86,218 L-86,217 L-85,217 L-85,216 L-84,216 L-84,215 L-83,215 L-83,214 L-82,214 L-82,213 L-81,213 L-81,212 L-80,212 L-80,211 L-79,211 L-79,210 L-78,210 L-78,209 L-77,209 L-77,208 L-76,208 L-76,207 L-75,207 L-75,206 L-74,206 L-74,205 L-73,205 L-73,204 L-72,204 L-72,203 L-71,203 L-71,202 L-70,202 L-70,201 L-69,201 L-69,200 L-68,200 L-68,198 L-67,198 L-67,197 L-66,197 L-66,196 L-65,196 L-65,195 L-64,195 L-64,194 L-63,194 L-63,193 L-62,193 L-62,192 L-61,192 L-61,191 L-60,191 L-60,190 L-59,190 L-59,189 L-58,189 L-58,188 L-57,188 L-57,187 L-56,187 L-56,186 L-55,186 L-55,185 L-54,185 L-54,184 L-53,184 L-53,183 L-52,183 L-52,182 L-51,182 L-51,181 L-50,181 L-50,180 L-49,180 L-49,179 L-48,179 L-48,178 L-47,178 L-47,177 L-46,177 L-46,176 L-45,176 L-45,173 L-46,173 L-46,172 L-47,172 L-47,171 L-48,171 L-48,170 L-49,170 L-49,169 L-50,169 L-50,168 L-51,168 L-51,167 L-52,167 L-52,166 L-53,166 L-53,165 L-54,165 L-54,164 L-55,164 L-55,163 L-56,163 L-56,162 L-57,162 L-57,161 L-58,161 L-58,160 L-59,160 L-59,159 L-60,159 L-60,158 L-61,158 L-61,157 L-62,157 L-62,156 L-63,156 L-63,155 L-64,155 L-64,154 L-65,154 L-65,153 L-64,153 L-64,152 L-63,152 L-63,151 L-62,151 L-62,150 L-61,150 L-61,149 L-60,149 L-60,148 L-59,148 L-59,147 L-58,147 L-58,146 L-57,146 L-57,145 L-56,145 L-56,144 L-55,144 L-55,143 L-54,143 L-54,141 L-53,141 L-53,140 L-52,140 L-52,139 L-51,139 L-51,138 L-50,138 L-50,137 L-49,137 L-49,136 L-48,136 L-48,135 L-47,135 L-47,134 L-46,134 L-46,133 L-45,133 L-45,131 L-46,131 L-46,130 L-47,130 L-47,129 L-48,129 L-48,128 L-49,128 L-49,127 L-50,127 L-50,126 L-51,126 L-51,125 L-52,125 L-52,124 L-53,124 L-53,123 L-54,123 L-54,122 L-55,122 L-55,121 L-56,121 L-56,120 L-57,120 L-57,119 L-58,119 L-58,118 L-59,118 L-59,117 L-60,117 L-60,116 L-61,116 L-61,115 L-62,115 L-62,114 L-63,114 L-63,113 L-64,113 L-64,112 L-65,112 L-65,110 L-66,110 L-66,109 L-67,109 L-67,108 L-68,108 L-68,107 L-69,107 L-69,106 L-70,106 L-70,105 L-71,105 L-71,104 L-72,104 L-72,103 L-73,103 L-73,102 L-74,102 L-74,101 L-75,101 L-75,100 L-76,100 L-76,99 L-77,99 L-77,98 L-78,98 L-78,97 L-79,97 L-79,96 L-80,96 L-80,95 L-81,95 L-81,94 L-82,94 L-82,93 L-83,93 L-83,92 L-84,92 L-84,91 L-85,91 L-85,90 L-86,90 L-86,89 L0,89 Z "
     fill="#CA8C09"
     transform="translate(185,1)"
     id="path3" />
  <path
     d="M0,0 L2,0 L2,1 L3,1 L3,2 L4,2 L4,3 L5,3 L5,4 L6,4 L6,5 L7,5 L7,6 L8,6 L8,7 L9,7 L9,8 L10,8 L10,9 L11,9 L11,10 L12,10 L12,11 L13,11 L13,12 L14,12 L14,13 L15,13 L15,14 L16,14 L16,15 L17,15 L17,16 L18,16 L18,17 L19,17 L19,18 L20,18 L20,19 L21,19 L21,20 L22,20 L22,21 L23,21 L23,22 L24,22 L24,23 L25,23 L25,24 L26,24 L26,25 L27,25 L27,26 L28,26 L28,27 L29,27 L29,28 L30,28 L30,29 L31,29 L31,30 L32,30 L32,31 L33,31 L33,32 L34,32 L34,33 L35,33 L35,34 L36,34 L36,35 L37,35 L37,36 L38,36 L38,37 L39,37 L39,38 L40,38 L40,39 L41,39 L41,40 L42,40 L42,41 L43,41 L43,42 L44,42 L44,43 L45,43 L45,44 L46,44 L46,45 L47,45 L47,46 L48,46 L48,47 L49,47 L49,48 L50,48 L50,49 L51,49 L51,50 L52,50 L52,51 L53,51 L53,52 L54,52 L54,53 L55,53 L55,54 L56,54 L56,55 L57,55 L57,56 L58,56 L58,57 L59,57 L59,58 L60,58 L60,59 L61,59 L61,60 L62,60 L62,61 L63,61 L63,62 L64,62 L64,63 L65,63 L65,64 L66,64 L66,65 L67,65 L67,66 L68,66 L68,67 L69,67 L69,68 L70,68 L70,69 L71,69 L71,70 L72,70 L72,71 L73,71 L73,72 L74,72 L74,73 L75,73 L75,74 L76,74 L76,76 L75,76 L75,77 L74,77 L74,78 L73,78 L73,79 L72,79 L72,80 L71,80 L71,81 L70,81 L70,82 L69,82 L69,83 L68,83 L68,84 L67,84 L67,85 L66,85 L66,86 L65,86 L65,87 L64,87 L64,88 L63,88 L63,89 L62,89 L62,90 L61,90 L61,91 L60,91 L60,92 L59,92 L59,93 L58,93 L58,94 L57,94 L57,95 L56,95 L56,96 L55,96 L55,97 L54,97 L54,98 L53,98 L53,99 L52,99 L52,100 L51,100 L51,101 L50,101 L50,103 L48,103 L48,104 L47,104 L47,105 L46,105 L46,106 L45,106 L45,107 L44,107 L44,108 L43,108 L43,109 L42,109 L42,110 L41,110 L41,111 L40,111 L40,112 L39,112 L39,113 L38,113 L38,114 L37,114 L37,115 L36,115 L36,116 L35,116 L35,117 L34,117 L34,118 L33,118 L33,119 L32,119 L32,120 L31,120 L31,121 L30,121 L30,122 L29,122 L29,123 L28,123 L28,124 L27,124 L27,125 L26,125 L26,126 L25,126 L25,127 L24,127 L24,128 L23,128 L23,129 L22,129 L22,130 L21,130 L21,131 L20,131 L20,132 L19,132 L19,133 L18,133 L18,134 L17,134 L17,135 L16,135 L16,136 L15,136 L15,137 L14,137 L14,138 L13,138 L13,139 L12,139 L12,140 L11,140 L11,141 L10,141 L10,142 L9,142 L9,143 L8,143 L8,144 L7,144 L7,145 L6,145 L6,146 L5,146 L5,147 L4,147 L4,148 L3,148 L3,149 L2,149 L2,150 L1,150 L1,151 L0,151 L0,152 L-1,152 L-1,153 L-2,153 L-2,154 L-3,154 L-3,155 L-4,155 L-4,156 L-5,156 L-5,157 L-6,157 L-6,158 L-7,158 L-7,159 L-8,159 L-8,3 L-7,3 L-7,2 L-3,2 L-3,1 L0,1 Z "
     fill="#CA8C0A"
     transform="translate(265,181)"
     id="path4" />
  <path
     d="M0,0 L2,0 L2,1 L4,1 L4,2 L8,2 L8,3 L10,3 L10,159 L9,159 L9,158 L8,158 L8,157 L7,157 L7,156 L6,156 L6,155 L5,155 L5,154 L4,154 L4,153 L3,153 L3,152 L2,152 L2,151 L1,151 L1,150 L0,150 L0,149 L-1,149 L-1,148 L-2,148 L-2,147 L-3,147 L-3,146 L-4,146 L-4,145 L-5,145 L-5,144 L-6,144 L-6,143 L-7,143 L-7,142 L-8,142 L-8,141 L-9,141 L-9,140 L-10,140 L-10,139 L-11,139 L-11,138 L-12,138 L-12,137 L-13,137 L-13,136 L-14,136 L-14,135 L-15,135 L-15,134 L-16,134 L-16,133 L-17,133 L-17,132 L-18,132 L-18,131 L-19,131 L-19,130 L-20,130 L-20,129 L-21,129 L-21,128 L-22,128 L-22,127 L-23,127 L-23,126 L-24,126 L-24,125 L-25,125 L-25,124 L-26,124 L-26,123 L-27,123 L-27,122 L-28,122 L-28,121 L-29,121 L-29,120 L-30,120 L-30,119 L-31,119 L-31,118 L-32,118 L-32,117 L-33,117 L-33,116 L-34,116 L-34,115 L-35,115 L-35,114 L-36,114 L-36,113 L-37,113 L-37,112 L-38,112 L-38,111 L-39,111 L-39,110 L-40,110 L-40,109 L-41,109 L-41,108 L-42,108 L-42,107 L-43,107 L-43,106 L-44,106 L-44,105 L-45,105 L-45,104 L-46,104 L-46,103 L-47,103 L-47,102 L-48,102 L-48,101 L-49,101 L-49,100 L-50,100 L-50,99 L-51,99 L-51,98 L-52,98 L-52,97 L-53,97 L-53,96 L-54,96 L-54,95 L-55,95 L-55,94 L-56,94 L-56,93 L-57,93 L-57,92 L-58,92 L-58,91 L-59,91 L-59,90 L-60,90 L-60,89 L-61,89 L-61,88 L-62,88 L-62,87 L-63,87 L-63,86 L-64,86 L-64,85 L-65,85 L-65,84 L-66,84 L-66,83 L-67,83 L-67,82 L-68,82 L-68,81 L-69,81 L-69,80 L-70,80 L-70,79 L-71,79 L-71,78 L-72,78 L-72,77 L-73,77 L-73,76 L-74,76 L-74,74 L-73,74 L-73,73 L-72,73 L-72,72 L-71,72 L-71,71 L-70,71 L-70,70 L-69,70 L-69,69 L-68,69 L-68,68 L-67,68 L-67,67 L-66,67 L-66,66 L-65,66 L-65,65 L-64,65 L-64,64 L-63,64 L-63,63 L-62,63 L-62,62 L-61,62 L-61,61 L-60,61 L-60,60 L-59,60 L-59,59 L-58,59 L-58,58 L-57,58 L-57,57 L-56,57 L-56,56 L-55,56 L-55,55 L-54,55 L-54,54 L-53,54 L-53,53 L-52,53 L-52,52 L-51,52 L-51,51 L-50,51 L-50,50 L-49,50 L-49,49 L-48,49 L-48,48 L-47,48 L-47,47 L-46,47 L-46,46 L-45,46 L-45,45 L-44,45 L-44,44 L-43,44 L-43,43 L-42,43 L-42,42 L-41,42 L-41,41 L-40,41 L-40,40 L-39,40 L-39,39 L-38,39 L-38,38 L-37,38 L-37,37 L-36,37 L-36,36 L-35,36 L-35,35 L-34,35 L-34,34 L-33,34 L-33,33 L-32,33 L-32,32 L-31,32 L-31,31 L-30,31 L-30,30 L-29,30 L-29,29 L-28,29 L-28,28 L-27,28 L-27,27 L-26,27 L-26,26 L-25,26 L-25,25 L-24,25 L-24,24 L-23,24 L-23,23 L-22,23 L-22,22 L-21,22 L-21,21 L-20,21 L-20,20 L-19,20 L-19,19 L-18,19 L-18,18 L-17,18 L-17,17 L-16,17 L-16,16 L-15,16 L-15,15 L-14,15 L-14,14 L-13,14 L-13,13 L-12,13 L-12,12 L-11,12 L-11,11 L-10,11 L-10,10 L-9,10 L-9,9 L-8,9 L-8,8 L-7,8 L-7,7 L-6,7 L-6,6 L-5,6 L-5,5 L-4,5 L-4,4 L-3,4 L-3,3 L-2,3 L-2,2 L-1,2 L-1,1 L0,1 Z "
     fill="#CB8C0A"
     transform="translate(233,181)"
     id="path5" />
  <path
     d="M0,0 L14,0 L14,1 L17,1 L17,2 L20,2 L20,3 L22,3 L22,4 L24,4 L24,5 L26,5 L26,6 L28,6 L28,7 L29,7 L29,8 L30,8 L30,9 L31,9 L31,10 L33,10 L33,12 L34,12 L34,13 L35,13 L35,14 L36,14 L36,15 L37,15 L37,17 L38,17 L38,18 L39,18 L39,20 L40,20 L40,22 L41,22 L41,24 L42,24 L42,28 L43,28 L43,31 L44,31 L44,44 L43,44 L43,48 L42,48 L42,52 L41,52 L41,54 L40,54 L40,55 L39,55 L39,58 L38,58 L38,59 L37,59 L37,60 L36,60 L36,62 L35,62 L35,63 L34,63 L34,64 L32,64 L32,63 L31,63 L31,62 L30,62 L30,61 L29,61 L29,60 L27,60 L27,61 L26,61 L26,62 L25,62 L25,63 L24,63 L24,64 L22,64 L22,65 L20,65 L20,66 L18,66 L18,67 L17,67 L17,69 L18,69 L18,70 L19,70 L19,71 L20,71 L20,72 L21,72 L21,73 L19,73 L19,74 L16,74 L16,75 L13,75 L13,68 L12,68 L12,69 L1,69 L1,68 L-1,68 L-1,75 L-3,75 L-3,74 L-7,74 L-7,73 L-9,73 L-9,72 L-8,72 L-8,71 L-7,71 L-7,70 L-6,70 L-6,69 L-5,69 L-5,68 L-4,68 L-4,67 L-6,67 L-6,66 L-8,66 L-8,65 L-10,65 L-10,64 L-12,64 L-12,63 L-13,63 L-13,62 L-14,62 L-14,61 L-15,61 L-15,60 L-16,60 L-16,61 L-17,61 L-17,62 L-18,62 L-18,63 L-19,63 L-19,64 L-22,64 L-22,63 L-23,63 L-23,62 L-24,62 L-24,60 L-25,60 L-25,59 L-26,59 L-26,57 L-27,57 L-27,55 L-28,55 L-28,53 L-29,53 L-29,51 L-30,51 L-30,47 L-31,47 L-31,41 L-32,41 L-32,34 L-31,34 L-31,28 L-30,28 L-30,25 L-29,25 L-29,23 L-28,23 L-28,20 L-27,20 L-27,19 L-26,19 L-26,17 L-25,17 L-25,16 L-24,16 L-24,14 L-23,14 L-23,13 L-22,13 L-22,12 L-21,12 L-21,11 L-20,11 L-20,10 L-19,10 L-19,9 L-18,9 L-18,8 L-17,8 L-17,7 L-15,7 L-15,6 L-14,6 L-14,5 L-12,5 L-12,4 L-10,4 L-10,3 L-8,3 L-8,2 L-5,2 L-5,1 L0,1 Z "
     fill="#C98A05"
     transform="translate(244,107)"
     id="path6" />
  <path
     d="M0,0 L3,0 L3,1 L4,1 L4,2 L5,2 L5,3 L6,3 L6,4 L7,4 L7,5 L8,5 L8,6 L9,6 L9,7 L10,7 L10,8 L11,8 L11,9 L12,9 L12,10 L13,10 L13,11 L14,11 L14,12 L15,12 L15,13 L16,13 L16,14 L17,14 L17,15 L18,15 L18,16 L19,16 L19,17 L20,17 L20,18 L21,18 L21,19 L22,19 L22,20 L23,20 L23,21 L24,21 L24,22 L25,22 L25,23 L26,23 L26,24 L27,24 L27,25 L28,25 L28,26 L29,26 L29,27 L30,27 L30,28 L31,28 L31,29 L32,29 L32,30 L33,30 L33,31 L34,31 L34,32 L35,32 L35,33 L36,33 L36,34 L37,34 L37,35 L38,35 L38,36 L39,36 L39,37 L40,37 L40,38 L41,38 L41,39 L42,39 L42,40 L43,40 L43,41 L44,41 L44,42 L45,42 L45,43 L46,43 L46,44 L47,44 L47,45 L48,45 L48,46 L49,46 L49,47 L50,47 L50,48 L51,48 L51,49 L52,49 L52,50 L53,50 L53,51 L54,51 L54,52 L55,52 L55,53 L56,53 L56,54 L57,54 L57,57 L56,57 L56,58 L55,58 L55,59 L54,59 L54,60 L53,60 L53,61 L52,61 L52,62 L51,62 L51,63 L50,63 L50,64 L49,64 L49,65 L48,65 L48,66 L47,66 L47,67 L46,67 L46,68 L45,68 L45,69 L44,69 L44,70 L43,70 L43,71 L42,71 L42,72 L41,72 L41,73 L40,73 L40,74 L39,74 L39,75 L38,75 L38,76 L37,76 L37,77 L36,77 L36,78 L35,78 L35,79 L34,79 L34,80 L33,80 L33,81 L32,81 L32,80 L31,80 L31,79 L30,79 L30,78 L29,78 L29,77 L28,77 L28,76 L27,76 L27,75 L26,75 L26,74 L25,74 L25,73 L24,73 L24,72 L23,72 L23,71 L22,71 L22,70 L21,70 L21,69 L20,69 L20,68 L19,68 L19,67 L18,67 L18,66 L17,66 L17,65 L16,65 L16,64 L15,64 L15,63 L14,63 L14,62 L13,62 L13,61 L12,61 L12,60 L11,60 L11,59 L10,59 L10,58 L9,58 L9,57 L8,57 L8,56 L7,56 L7,55 L6,55 L6,54 L5,54 L5,53 L4,53 L4,52 L3,52 L3,51 L2,51 L2,50 L1,50 L1,49 L0,49 L0,48 L-1,48 L-1,47 L-2,47 L-2,46 L-3,46 L-3,45 L-4,45 L-4,44 L-5,44 L-5,43 L-6,43 L-6,42 L-7,42 L-7,41 L-8,41 L-8,40 L-9,40 L-9,39 L-10,39 L-10,38 L-11,38 L-11,37 L-12,37 L-12,36 L-13,36 L-13,35 L-14,35 L-14,34 L-15,34 L-15,33 L-16,33 L-16,32 L-17,32 L-17,31 L-18,31 L-18,30 L-19,30 L-19,29 L-20,29 L-20,28 L-21,28 L-21,27 L-22,27 L-22,26 L-23,26 L-23,25 L-24,25 L-24,24 L-23,24 L-23,23 L-22,23 L-22,22 L-21,22 L-21,21 L-20,21 L-20,20 L-19,20 L-19,19 L-18,19 L-18,18 L-17,18 L-17,17 L-16,17 L-16,16 L-15,16 L-15,15 L-14,15 L-14,14 L-13,14 L-13,13 L-12,13 L-12,12 L-11,12 L-11,11 L-10,11 L-10,10 L-9,10 L-9,9 L-8,9 L-8,8 L-7,8 L-7,7 L-6,7 L-6,6 L-5,6 L-5,5 L-4,5 L-4,4 L-3,4 L-3,3 L-2,3 L-2,2 L-1,2 L-1,1 L0,1 Z "
     fill="#FCFDFD"
     transform="translate(284,333)"
     id="path7" />
  <path
     d="M0,0 L42,0 L42,1 L43,1 L43,2 L44,2 L44,3 L45,3 L45,4 L46,4 L46,5 L47,5 L47,6 L48,6 L48,7 L49,7 L49,8 L50,8 L50,9 L51,9 L51,10 L52,10 L52,11 L53,11 L53,12 L54,12 L54,13 L55,13 L55,14 L56,14 L56,15 L57,15 L57,16 L58,16 L58,17 L59,17 L59,18 L60,18 L60,20 L61,20 L61,21 L62,21 L62,22 L63,22 L63,23 L64,23 L64,24 L65,24 L65,25 L66,25 L66,26 L67,26 L67,27 L68,27 L68,28 L69,28 L69,29 L70,29 L70,30 L71,30 L71,31 L72,31 L72,32 L73,32 L73,33 L74,33 L74,34 L75,34 L75,35 L76,35 L76,36 L77,36 L77,37 L78,37 L78,38 L79,38 L79,39 L80,39 L80,40 L81,40 L81,41 L82,41 L82,42 L83,42 L83,43 L84,43 L84,44 L85,44 L85,45 L86,45 L86,47 L23,47 L23,46 L22,46 L22,45 L21,45 L21,44 L20,44 L20,43 L19,43 L19,42 L18,42 L18,41 L17,41 L17,40 L16,40 L16,39 L15,39 L15,38 L14,38 L14,37 L13,37 L13,36 L12,36 L12,35 L11,35 L11,34 L10,34 L10,33 L9,33 L9,32 L8,32 L8,31 L7,31 L7,30 L6,30 L6,29 L5,29 L5,28 L4,28 L4,27 L3,27 L3,26 L2,26 L2,25 L1,25 L1,24 L0,24 L0,23 L-1,23 L-1,22 L-2,22 L-2,21 L-3,21 L-3,20 L-4,20 L-4,19 L-5,19 L-5,18 L-6,18 L-6,17 L-7,17 L-7,16 L-8,16 L-8,15 L-9,15 L-9,14 L-8,14 L-8,13 L-7,13 L-7,12 L-6,12 L-6,11 L-5,11 L-5,9 L-4,9 L-4,8 L-3,8 L-3,6 L-2,6 L-2,4 L-1,4 L-1,2 L0,2 Z "
     fill="#FEFEFE"
     transform="translate(287,158)"
     id="path8" />
  <path
     d="M0,0 L43,0 L43,2 L44,2 L44,4 L45,4 L45,5 L46,5 L46,7 L47,7 L47,8 L48,8 L48,10 L49,10 L49,11 L50,11 L50,13 L49,13 L49,14 L48,14 L48,15 L47,15 L47,16 L46,16 L46,17 L45,17 L45,18 L44,18 L44,19 L43,19 L43,20 L42,20 L42,21 L41,21 L41,22 L40,22 L40,23 L39,23 L39,24 L38,24 L38,25 L37,25 L37,26 L36,26 L36,27 L35,27 L35,28 L34,28 L34,29 L33,29 L33,30 L32,30 L32,31 L31,31 L31,32 L30,32 L30,33 L29,33 L29,34 L28,34 L28,35 L27,35 L27,36 L26,36 L26,37 L25,37 L25,38 L24,38 L24,39 L23,39 L23,40 L22,40 L22,41 L21,41 L21,42 L20,42 L20,43 L19,43 L19,44 L18,44 L18,45 L17,45 L17,46 L16,46 L16,47 L15,47 L15,48 L-46,48 L-46,47 L-45,47 L-45,46 L-44,46 L-44,45 L-43,45 L-43,44 L-42,44 L-42,43 L-41,43 L-41,42 L-40,42 L-40,41 L-39,41 L-39,40 L-38,40 L-38,39 L-37,39 L-37,38 L-36,38 L-36,37 L-35,37 L-35,36 L-34,36 L-34,35 L-33,35 L-33,34 L-32,34 L-32,33 L-31,33 L-31,32 L-30,32 L-30,31 L-29,31 L-29,30 L-28,30 L-28,29 L-27,29 L-27,28 L-26,28 L-26,27 L-25,27 L-25,26 L-24,26 L-24,24 L-23,24 L-23,23 L-22,23 L-22,22 L-21,22 L-21,21 L-20,21 L-20,20 L-19,20 L-19,19 L-18,19 L-18,18 L-17,18 L-17,17 L-16,17 L-16,16 L-15,16 L-15,15 L-14,15 L-14,14 L-13,14 L-13,13 L-12,13 L-12,12 L-11,12 L-11,11 L-10,11 L-10,10 L-9,10 L-9,9 L-8,9 L-8,8 L-7,8 L-7,7 L-6,7 L-6,6 L-5,6 L-5,5 L-4,5 L-4,4 L-3,4 L-3,3 L-2,3 L-2,2 L-1,2 L-1,1 L0,1 Z "
     fill="#FEFDFC"
     transform="translate(171,160)"
     id="path9" />
  <path
     d="M0,0 L2,0 L2,1 L3,1 L3,2 L4,2 L4,3 L5,3 L5,4 L6,4 L6,5 L7,5 L7,6 L8,6 L8,7 L9,7 L9,8 L10,8 L10,9 L11,9 L11,10 L12,10 L12,11 L13,11 L13,12 L14,12 L14,13 L15,13 L15,14 L16,14 L16,15 L17,15 L17,16 L18,16 L18,17 L19,17 L19,18 L20,18 L20,19 L21,19 L21,20 L22,20 L22,21 L23,21 L23,22 L24,22 L24,23 L25,23 L25,24 L26,24 L26,25 L25,25 L25,26 L24,26 L24,27 L23,27 L23,28 L22,28 L22,29 L21,29 L21,30 L20,30 L20,31 L19,31 L19,32 L18,32 L18,33 L17,33 L17,34 L16,34 L16,35 L15,35 L15,36 L14,36 L14,37 L13,37 L13,38 L12,38 L12,39 L11,39 L11,40 L10,40 L10,41 L9,41 L9,42 L8,42 L8,43 L7,43 L7,44 L6,44 L6,45 L5,45 L5,46 L4,46 L4,47 L3,47 L3,48 L2,48 L2,49 L1,49 L1,50 L0,50 L0,51 L-1,51 L-1,52 L-2,52 L-2,53 L-3,53 L-3,54 L-4,54 L-4,55 L-5,55 L-5,56 L-6,56 L-6,57 L-7,57 L-7,58 L-8,58 L-8,59 L-9,59 L-9,60 L-10,60 L-10,61 L-11,61 L-11,62 L-12,62 L-12,63 L-13,63 L-13,64 L-14,64 L-14,65 L-15,65 L-15,66 L-16,66 L-16,67 L-17,67 L-17,68 L-18,68 L-18,69 L-19,69 L-19,70 L-20,70 L-20,71 L-21,71 L-21,72 L-22,72 L-22,73 L-23,73 L-23,74 L-24,74 L-24,75 L-25,75 L-25,76 L-26,76 L-26,77 L-27,77 L-27,78 L-28,78 L-28,79 L-29,79 L-29,81 L-31,81 L-31,80 L-32,80 L-32,79 L-33,79 L-33,78 L-34,78 L-34,77 L-35,77 L-35,76 L-36,76 L-36,75 L-37,75 L-37,74 L-38,74 L-38,73 L-39,73 L-39,72 L-40,72 L-40,71 L-41,71 L-41,70 L-42,70 L-42,69 L-43,69 L-43,68 L-44,68 L-44,67 L-45,67 L-45,66 L-46,66 L-46,65 L-47,65 L-47,64 L-48,64 L-48,63 L-49,63 L-49,62 L-50,62 L-50,61 L-51,61 L-51,60 L-52,60 L-52,59 L-53,59 L-53,58 L-54,58 L-54,57 L-55,57 L-55,55 L-54,55 L-54,54 L-53,54 L-53,53 L-52,53 L-52,52 L-51,52 L-51,51 L-50,51 L-50,50 L-49,50 L-49,49 L-48,49 L-48,48 L-47,48 L-47,47 L-46,47 L-46,46 L-45,46 L-45,45 L-44,45 L-44,44 L-43,44 L-43,43 L-42,43 L-42,42 L-41,42 L-41,41 L-40,41 L-40,40 L-39,40 L-39,39 L-38,39 L-38,38 L-37,38 L-37,37 L-36,37 L-36,36 L-35,36 L-35,35 L-34,35 L-34,34 L-33,34 L-33,33 L-32,33 L-32,32 L-31,32 L-31,31 L-30,31 L-30,30 L-29,30 L-29,29 L-28,29 L-28,28 L-27,28 L-27,27 L-26,27 L-26,26 L-25,26 L-25,25 L-24,25 L-24,24 L-23,24 L-23,23 L-22,23 L-22,22 L-21,22 L-21,21 L-20,21 L-20,20 L-19,20 L-19,19 L-18,19 L-18,18 L-17,18 L-17,17 L-16,17 L-16,16 L-15,16 L-15,15 L-14,15 L-14,14 L-13,14 L-13,13 L-12,13 L-12,12 L-11,12 L-11,11 L-10,11 L-10,10 L-9,10 L-9,9 L-8,9 L-8,8 L-7,8 L-7,7 L-6,7 L-6,6 L-5,6 L-5,5 L-4,5 L-4,4 L-3,4 L-3,3 L-2,3 L-2,2 L-1,2 L-1,1 L0,1 Z "
     fill="#FEFEFE"
     transform="translate(214,333)"
     id="path10" />
  <path
     d="M0,0 L65,0 L65,1 L66,1 L66,2 L67,2 L67,3 L68,3 L68,4 L69,4 L69,5 L70,5 L70,6 L71,6 L71,7 L72,7 L72,8 L73,8 L73,9 L74,9 L74,10 L75,10 L75,11 L76,11 L76,12 L77,12 L77,13 L78,13 L78,14 L79,14 L79,15 L80,15 L80,16 L81,16 L81,17 L82,17 L82,18 L83,18 L83,19 L84,19 L84,20 L85,20 L85,21 L86,21 L86,22 L87,22 L87,23 L88,23 L88,24 L89,24 L89,25 L90,25 L90,27 L89,27 L89,29 L88,29 L88,31 L87,31 L87,35 L86,35 L86,48 L46,48 L46,47 L45,47 L45,46 L44,46 L44,45 L43,45 L43,44 L42,44 L42,43 L41,43 L41,42 L40,42 L40,41 L39,41 L39,40 L38,40 L38,39 L37,39 L37,38 L36,38 L36,37 L35,37 L35,36 L34,36 L34,35 L33,35 L33,34 L32,34 L32,33 L31,33 L31,32 L30,32 L30,30 L29,30 L29,29 L28,29 L28,28 L27,28 L27,27 L26,27 L26,26 L25,26 L25,25 L24,25 L24,24 L23,24 L23,23 L22,23 L22,22 L21,22 L21,21 L20,21 L20,20 L19,20 L19,19 L18,19 L18,18 L17,18 L17,17 L16,17 L16,16 L15,16 L15,15 L14,15 L14,14 L13,14 L13,13 L12,13 L12,12 L11,12 L11,11 L10,11 L10,10 L9,10 L9,9 L8,9 L8,8 L7,8 L7,7 L6,7 L6,6 L5,6 L5,5 L4,5 L4,4 L3,4 L3,3 L2,3 L2,2 L1,2 L1,1 L0,1 Z "
     fill="#FEFDFC"
     transform="translate(125,101)"
     id="path11" />
  <path
     d="M0,0 L65,0 L65,1 L64,1 L64,2 L63,2 L63,3 L62,3 L62,4 L61,4 L61,5 L60,5 L60,6 L59,6 L59,7 L58,7 L58,8 L57,8 L57,9 L56,9 L56,10 L55,10 L55,11 L54,11 L54,12 L53,12 L53,13 L52,13 L52,14 L51,14 L51,15 L50,15 L50,17 L49,17 L49,18 L48,18 L48,19 L47,19 L47,20 L46,20 L46,21 L45,21 L45,22 L44,22 L44,23 L43,23 L43,24 L42,24 L42,25 L41,25 L41,26 L40,26 L40,27 L39,27 L39,28 L38,28 L38,29 L37,29 L37,30 L36,30 L36,31 L35,31 L35,32 L34,32 L34,33 L33,33 L33,34 L32,34 L32,35 L31,35 L31,36 L30,36 L30,37 L29,37 L29,38 L28,38 L28,39 L27,39 L27,40 L26,40 L26,41 L25,41 L25,42 L24,42 L24,43 L23,43 L23,44 L22,44 L22,45 L21,45 L21,46 L20,46 L20,47 L-20,47 L-20,36 L-21,36 L-21,33 L-22,33 L-22,31 L-23,31 L-23,28 L-24,28 L-24,27 L-25,27 L-25,25 L-24,25 L-24,24 L-23,24 L-23,23 L-22,23 L-22,22 L-21,22 L-21,21 L-20,21 L-20,20 L-19,20 L-19,19 L-18,19 L-18,18 L-17,18 L-17,17 L-16,17 L-16,16 L-15,16 L-15,15 L-14,15 L-14,14 L-13,14 L-13,13 L-12,13 L-12,12 L-11,12 L-11,11 L-10,11 L-10,10 L-9,10 L-9,9 L-8,9 L-8,8 L-7,8 L-7,7 L-6,7 L-6,6 L-5,6 L-5,5 L-4,5 L-4,4 L-3,4 L-3,3 L-2,3 L-2,2 L-1,2 L-1,1 L0,1 Z "
     fill="#FEFEFD"
     transform="translate(309,99)"
     id="path12" />
  <path
     d="M0,0 L2,0 L2,1 L4,1 L4,2 L8,2 L8,3 L10,3 L10,51 L9,51 L9,52 L8,52 L8,53 L7,53 L7,54 L6,54 L6,55 L5,55 L5,56 L4,56 L4,57 L3,57 L3,58 L2,58 L2,59 L1,59 L1,60 L0,60 L0,61 L-1,61 L-1,62 L-2,62 L-2,63 L-3,63 L-3,64 L-4,64 L-4,65 L-5,65 L-5,66 L-6,66 L-6,67 L-7,67 L-7,68 L-8,68 L-8,69 L-9,69 L-9,70 L-10,70 L-10,71 L-11,71 L-11,72 L-12,72 L-12,73 L-13,73 L-13,74 L-14,74 L-14,75 L-15,75 L-15,76 L-16,76 L-16,77 L-17,77 L-17,78 L-18,78 L-18,79 L-19,79 L-19,80 L-20,80 L-20,81 L-21,81 L-21,82 L-22,82 L-22,83 L-23,83 L-23,84 L-24,84 L-24,85 L-26,85 L-26,86 L-27,86 L-27,87 L-28,87 L-28,88 L-29,88 L-29,89 L-30,89 L-30,90 L-31,90 L-31,91 L-32,91 L-32,92 L-33,92 L-33,93 L-34,93 L-34,94 L-35,94 L-35,95 L-36,95 L-36,96 L-37,96 L-37,37 L-36,37 L-36,36 L-35,36 L-35,35 L-34,35 L-34,34 L-33,34 L-33,33 L-32,33 L-32,32 L-31,32 L-31,31 L-30,31 L-30,30 L-29,30 L-29,29 L-28,29 L-28,28 L-27,28 L-27,27 L-26,27 L-26,26 L-25,26 L-25,25 L-24,25 L-24,24 L-23,24 L-23,23 L-22,23 L-22,22 L-21,22 L-21,21 L-20,21 L-20,20 L-19,20 L-19,19 L-18,19 L-18,18 L-17,18 L-17,17 L-16,17 L-16,16 L-15,16 L-15,15 L-14,15 L-14,14 L-13,14 L-13,13 L-12,13 L-12,12 L-11,12 L-11,11 L-10,11 L-10,10 L-9,10 L-9,9 L-8,9 L-8,8 L-7,8 L-7,7 L-6,7 L-6,6 L-5,6 L-5,5 L-4,5 L-4,4 L-3,4 L-3,3 L-2,3 L-2,2 L-1,2 L-1,1 L0,1 Z "
     fill="#FEFEFE"
     transform="translate(233,181)"
     id="path13" />
  <path
     d="M0,0 L2,0 L2,1 L3,1 L3,2 L4,2 L4,3 L5,3 L5,4 L6,4 L6,5 L7,5 L7,6 L8,6 L8,7 L9,7 L9,8 L10,8 L10,9 L11,9 L11,10 L12,10 L12,11 L13,11 L13,12 L14,12 L14,13 L15,13 L15,14 L16,14 L16,15 L17,15 L17,16 L18,16 L18,17 L19,17 L19,18 L20,18 L20,19 L21,19 L21,20 L22,20 L22,21 L23,21 L23,22 L24,22 L24,23 L25,23 L25,24 L26,24 L26,25 L27,25 L27,26 L28,26 L28,27 L29,27 L29,28 L30,28 L30,29 L31,29 L31,30 L32,30 L32,31 L33,31 L33,32 L34,32 L34,33 L35,33 L35,34 L36,34 L36,35 L37,35 L37,96 L36,96 L36,95 L35,95 L35,94 L34,94 L34,93 L33,93 L33,92 L32,92 L32,91 L31,91 L31,90 L30,90 L30,89 L29,89 L29,88 L28,88 L28,87 L27,87 L27,86 L25,86 L25,85 L24,85 L24,84 L23,84 L23,83 L22,83 L22,82 L21,82 L21,81 L20,81 L20,80 L19,80 L19,79 L18,79 L18,78 L17,78 L17,77 L16,77 L16,76 L15,76 L15,75 L14,75 L14,74 L13,74 L13,73 L12,73 L12,72 L11,72 L11,71 L10,71 L10,70 L9,70 L9,69 L8,69 L8,68 L7,68 L7,67 L6,67 L6,66 L5,66 L5,65 L4,65 L4,64 L3,64 L3,63 L2,63 L2,62 L1,62 L1,61 L0,61 L0,60 L-1,60 L-1,59 L-2,59 L-2,58 L-3,58 L-3,57 L-4,57 L-4,56 L-5,56 L-5,55 L-6,55 L-6,54 L-7,54 L-7,53 L-8,53 L-8,3 L-7,3 L-7,2 L-3,2 L-3,1 L0,1 Z "
     fill="#FEFEFE"
     transform="translate(265,181)"
     id="path14" />
  <path
     d="M0,0 L1,0 L1,1 L2,1 L2,2 L3,2 L3,3 L4,3 L4,4 L5,4 L5,5 L6,5 L6,6 L7,6 L7,7 L8,7 L8,8 L9,8 L9,9 L10,9 L10,10 L11,10 L11,11 L12,11 L12,12 L13,12 L13,13 L14,13 L14,14 L15,14 L15,15 L16,15 L16,16 L17,16 L17,17 L18,17 L18,18 L19,18 L19,19 L20,19 L20,20 L21,20 L21,21 L22,21 L22,22 L24,22 L24,23 L25,23 L25,24 L26,24 L26,25 L27,25 L27,26 L28,26 L28,27 L29,27 L29,28 L30,28 L30,29 L31,29 L31,30 L32,30 L32,31 L33,31 L33,32 L34,32 L34,33 L35,33 L35,34 L36,34 L36,35 L37,35 L37,36 L38,36 L38,37 L39,37 L39,38 L40,38 L40,39 L41,39 L41,40 L42,40 L42,41 L43,41 L43,42 L44,42 L44,43 L45,43 L45,44 L46,44 L46,45 L47,45 L47,79 L44,79 L44,80 L40,80 L40,81 L38,81 L38,82 L36,82 L36,83 L34,83 L34,84 L33,84 L33,85 L31,85 L31,86 L30,86 L30,87 L29,87 L29,88 L28,88 L28,89 L27,89 L27,90 L25,90 L25,89 L24,89 L24,88 L23,88 L23,87 L22,87 L22,86 L21,86 L21,85 L20,85 L20,84 L19,84 L19,83 L18,83 L18,82 L17,82 L17,81 L16,81 L16,80 L15,80 L15,79 L14,79 L14,78 L13,78 L13,77 L12,77 L12,76 L11,76 L11,75 L10,75 L10,74 L9,74 L9,73 L8,73 L8,72 L7,72 L7,71 L6,71 L6,70 L5,70 L5,69 L4,69 L4,68 L3,68 L3,67 L2,67 L2,66 L1,66 L1,65 L0,65 Z "
     fill="#FEFEFD"
     transform="translate(196,27)"
     id="path15" />
  <path
     d="M0,0 L1,0 L1,65 L0,65 L0,66 L-1,66 L-1,67 L-2,67 L-2,68 L-3,68 L-3,69 L-4,69 L-4,70 L-5,70 L-5,71 L-6,71 L-6,72 L-7,72 L-7,73 L-8,73 L-8,74 L-9,74 L-9,75 L-10,75 L-10,76 L-11,76 L-11,77 L-12,77 L-12,78 L-13,78 L-13,79 L-14,79 L-14,80 L-15,80 L-15,81 L-16,81 L-16,82 L-17,82 L-17,83 L-18,83 L-18,84 L-19,84 L-19,85 L-20,85 L-20,86 L-21,86 L-21,87 L-22,87 L-22,88 L-23,88 L-23,89 L-24,89 L-24,88 L-26,88 L-26,87 L-27,87 L-27,86 L-28,86 L-28,85 L-30,85 L-30,84 L-31,84 L-31,83 L-33,83 L-33,82 L-36,82 L-36,81 L-38,81 L-38,80 L-40,80 L-40,79 L-46,79 L-46,45 L-45,45 L-45,44 L-44,44 L-44,43 L-43,43 L-43,42 L-42,42 L-42,41 L-41,41 L-41,40 L-40,40 L-40,39 L-39,39 L-39,38 L-38,38 L-38,37 L-37,37 L-37,36 L-36,36 L-36,35 L-35,35 L-35,34 L-34,34 L-34,33 L-33,33 L-33,32 L-32,32 L-32,31 L-31,31 L-31,30 L-30,30 L-30,29 L-29,29 L-29,28 L-28,28 L-28,27 L-27,27 L-27,26 L-26,26 L-26,25 L-25,25 L-25,24 L-23,24 L-23,23 L-22,23 L-22,22 L-21,22 L-21,21 L-20,21 L-20,20 L-19,20 L-19,19 L-18,19 L-18,18 L-17,18 L-17,17 L-16,17 L-16,16 L-15,16 L-15,15 L-14,15 L-14,14 L-13,14 L-13,13 L-12,13 L-12,12 L-11,12 L-11,11 L-10,11 L-10,10 L-9,10 L-9,9 L-8,9 L-8,8 L-7,8 L-7,7 L-6,7 L-6,6 L-5,6 L-5,5 L-4,5 L-4,4 L-3,4 L-3,3 L-2,3 L-2,2 L-1,2 L-1,1 L0,1 Z "
     fill="#FEFEFD"
     transform="translate(301,27)"
     id="path16" />
  <path
     d="M0,0 L1,0 L1,1 L2,1 L2,2 L3,2 L3,3 L4,3 L4,4 L5,4 L5,5 L6,5 L6,6 L7,6 L7,7 L8,7 L8,8 L9,8 L9,9 L10,9 L10,10 L11,10 L11,11 L12,11 L12,12 L13,12 L13,13 L14,13 L14,14 L15,14 L15,78 L14,78 L14,77 L13,77 L13,76 L12,76 L12,75 L11,75 L11,74 L10,74 L10,73 L9,73 L9,72 L8,72 L8,71 L7,71 L7,70 L6,70 L6,69 L5,69 L5,68 L4,68 L4,67 L3,67 L3,66 L2,66 L2,65 L1,65 L1,64 L0,64 L0,63 L-1,63 L-1,62 L-2,62 L-2,61 L-3,61 L-3,60 L-4,60 L-4,59 L-5,59 L-5,58 L-6,58 L-6,57 L-7,57 L-7,56 L-8,56 L-8,55 L-9,55 L-9,54 L-10,54 L-10,53 L-11,53 L-11,52 L-12,52 L-12,51 L-13,51 L-13,50 L-14,50 L-14,49 L-15,49 L-15,48 L-16,48 L-16,47 L-17,47 L-17,46 L-18,46 L-18,45 L-19,45 L-19,44 L-20,44 L-20,43 L-21,43 L-21,42 L-22,42 L-22,41 L-23,41 L-23,40 L-24,40 L-24,39 L-25,39 L-25,38 L-26,38 L-26,37 L-27,37 L-27,36 L-28,36 L-28,35 L-29,35 L-29,34 L-30,34 L-30,33 L-31,33 L-31,32 L-32,32 L-32,31 L-31,31 L-31,30 L-30,30 L-30,29 L-29,29 L-29,28 L-28,28 L-28,27 L-27,27 L-27,26 L-26,26 L-26,25 L-25,25 L-25,24 L-24,24 L-24,23 L-23,23 L-23,22 L-22,22 L-22,21 L-21,21 L-21,20 L-20,20 L-20,19 L-19,19 L-19,18 L-18,18 L-18,17 L-17,17 L-17,16 L-16,16 L-16,15 L-15,15 L-15,14 L-14,14 L-14,13 L-13,13 L-13,12 L-12,12 L-12,11 L-10,11 L-10,10 L-9,10 L-9,9 L-8,9 L-8,8 L-7,8 L-7,7 L-6,7 L-6,6 L-5,6 L-5,5 L-4,5 L-4,4 L-3,4 L-3,3 L-2,3 L-2,2 L-1,2 L-1,1 L0,1 Z "
     fill="#FEFEFD"
     transform="translate(228,262)"
     id="path17" />
  <path
     d="M0,0 L1,0 L1,1 L2,1 L2,2 L3,2 L3,3 L4,3 L4,4 L5,4 L5,5 L6,5 L6,6 L7,6 L7,7 L8,7 L8,8 L9,8 L9,9 L10,9 L10,10 L12,10 L12,11 L13,11 L13,12 L14,12 L14,13 L15,13 L15,14 L16,14 L16,15 L17,15 L17,16 L18,16 L18,17 L19,17 L19,18 L20,18 L20,19 L21,19 L21,20 L22,20 L22,21 L23,21 L23,22 L24,22 L24,23 L25,23 L25,24 L26,24 L26,25 L27,25 L27,26 L28,26 L28,27 L29,27 L29,28 L30,28 L30,29 L31,29 L31,30 L32,30 L32,31 L33,31 L33,32 L34,32 L34,33 L33,33 L33,34 L32,34 L32,35 L31,35 L31,36 L30,36 L30,37 L29,37 L29,38 L28,38 L28,39 L27,39 L27,40 L26,40 L26,41 L25,41 L25,42 L24,42 L24,43 L23,43 L23,44 L22,44 L22,45 L21,45 L21,46 L20,46 L20,47 L19,47 L19,48 L18,48 L18,49 L17,49 L17,50 L16,50 L16,51 L15,51 L15,52 L14,52 L14,53 L13,53 L13,54 L12,54 L12,55 L11,55 L11,56 L10,56 L10,57 L9,57 L9,58 L8,58 L8,59 L7,59 L7,60 L6,60 L6,61 L5,61 L5,62 L4,62 L4,63 L3,63 L3,64 L2,64 L2,65 L1,65 L1,66 L0,66 L0,67 L-1,67 L-1,68 L-2,68 L-2,69 L-3,69 L-3,70 L-4,70 L-4,71 L-5,71 L-5,72 L-6,72 L-6,73 L-7,73 L-7,74 L-8,74 L-8,75 L-9,75 L-9,76 L-10,76 L-10,77 L-11,77 L-11,78 L-12,78 L-12,12 L-11,12 L-11,11 L-10,11 L-10,10 L-9,10 L-9,9 L-8,9 L-8,8 L-7,8 L-7,7 L-6,7 L-6,6 L-5,6 L-5,5 L-4,5 L-4,4 L-3,4 L-3,3 L-2,3 L-2,2 L-1,2 L-1,1 L0,1 Z "
     fill="#FEFEFD"
     transform="translate(269,262)"
     id="path18" />
  <path
     d="M0,0 L2,0 L2,1 L3,1 L3,2 L4,2 L4,3 L5,3 L5,4 L6,4 L6,5 L7,5 L7,6 L8,6 L8,7 L9,7 L9,8 L10,8 L10,9 L11,9 L11,10 L12,10 L12,11 L13,11 L13,12 L14,12 L14,13 L15,13 L15,14 L16,14 L16,15 L17,15 L17,16 L18,16 L18,17 L19,17 L19,18 L20,18 L20,19 L21,19 L21,20 L22,20 L22,21 L23,21 L23,22 L24,22 L24,23 L25,23 L25,24 L26,24 L26,25 L27,25 L27,26 L28,26 L28,27 L29,27 L29,28 L30,28 L30,29 L31,29 L31,30 L32,30 L32,31 L33,31 L33,32 L34,32 L34,33 L35,33 L35,34 L36,34 L36,35 L37,35 L37,36 L38,36 L38,37 L39,37 L39,38 L40,38 L40,39 L41,39 L41,59 L40,59 L40,58 L39,58 L39,57 L38,57 L38,56 L37,56 L37,55 L36,55 L36,54 L35,54 L35,53 L34,53 L34,52 L33,52 L33,51 L32,51 L32,50 L31,50 L31,49 L30,49 L30,48 L29,48 L29,47 L28,47 L28,46 L27,46 L27,45 L26,45 L26,44 L25,44 L25,43 L24,43 L24,42 L23,42 L23,41 L22,41 L22,40 L21,40 L21,39 L20,39 L20,38 L19,38 L19,37 L18,37 L18,36 L17,36 L17,35 L16,35 L16,34 L15,34 L15,33 L14,33 L14,32 L13,32 L13,31 L12,31 L12,30 L11,30 L11,29 L10,29 L10,28 L9,28 L9,27 L8,27 L8,26 L7,26 L7,25 L6,25 L6,24 L5,24 L5,23 L4,23 L4,22 L3,22 L3,21 L2,21 L2,20 L1,20 L1,19 L0,19 L0,18 L-1,18 L-1,17 L-2,17 L-2,16 L-3,16 L-3,15 L-4,15 L-4,14 L-5,14 L-5,13 L-6,13 L-6,12 L-7,12 L-7,11 L-8,11 L-8,10 L-9,10 L-9,9 L-8,9 L-8,8 L-7,8 L-7,7 L-6,7 L-6,6 L-5,6 L-5,5 L-4,5 L-4,4 L-3,4 L-3,3 L-2,3 L-2,2 L-1,2 L-1,1 L0,1 Z "
     fill="#F5F9F9"
     transform="translate(304,313)"
     id="path19" />
  <path
     d="M0,0 L1,0 L1,1 L2,1 L2,2 L3,2 L3,3 L4,3 L4,4 L5,4 L5,5 L6,5 L6,6 L7,6 L7,7 L8,7 L8,8 L9,8 L9,9 L10,9 L10,10 L9,10 L9,11 L8,11 L8,12 L7,12 L7,13 L6,13 L6,14 L5,14 L5,15 L4,15 L4,16 L3,16 L3,17 L2,17 L2,18 L1,18 L1,19 L0,19 L0,20 L-1,20 L-1,21 L-2,21 L-2,22 L-3,22 L-3,23 L-4,23 L-4,24 L-5,24 L-5,25 L-6,25 L-6,26 L-7,26 L-7,27 L-8,27 L-8,28 L-9,28 L-9,29 L-10,29 L-10,30 L-11,30 L-11,31 L-12,31 L-12,32 L-13,32 L-13,33 L-14,33 L-14,34 L-15,34 L-15,35 L-16,35 L-16,36 L-17,36 L-17,37 L-18,37 L-18,38 L-19,38 L-19,39 L-20,39 L-20,40 L-21,40 L-21,41 L-22,41 L-22,42 L-23,42 L-23,43 L-24,43 L-24,44 L-25,44 L-25,45 L-26,45 L-26,46 L-27,46 L-27,47 L-28,47 L-28,48 L-29,48 L-29,49 L-30,49 L-30,50 L-31,50 L-31,51 L-32,51 L-32,52 L-33,52 L-33,53 L-34,53 L-34,54 L-35,54 L-35,55 L-36,55 L-36,56 L-37,56 L-37,57 L-38,57 L-38,58 L-39,58 L-39,39 L-38,39 L-38,38 L-37,38 L-37,37 L-36,37 L-36,36 L-35,36 L-35,35 L-34,35 L-34,34 L-33,34 L-33,33 L-32,33 L-32,32 L-31,32 L-31,31 L-30,31 L-30,30 L-29,30 L-29,29 L-28,29 L-28,28 L-27,28 L-27,27 L-26,27 L-26,26 L-25,26 L-25,25 L-24,25 L-24,24 L-23,24 L-23,23 L-22,23 L-22,22 L-21,22 L-21,21 L-20,21 L-20,20 L-19,20 L-19,19 L-18,19 L-18,18 L-17,18 L-17,17 L-16,17 L-16,16 L-15,16 L-15,15 L-14,15 L-14,14 L-13,14 L-13,13 L-12,13 L-12,12 L-11,12 L-11,11 L-10,11 L-10,10 L-9,10 L-9,9 L-8,9 L-8,8 L-7,8 L-7,7 L-6,7 L-6,6 L-5,6 L-5,5 L-4,5 L-4,4 L-3,4 L-3,3 L-2,3 L-2,2 L-1,2 L-1,1 L0,1 Z "
     fill="#FDFEFE"
     transform="translate(398,313)"
     id="path20" />
  <path
     d="M0,0 L2,0 L2,1 L3,1 L3,2 L4,2 L4,3 L5,3 L5,4 L6,4 L6,5 L7,5 L7,6 L8,6 L8,7 L9,7 L9,8 L10,8 L10,9 L11,9 L11,10 L12,10 L12,11 L13,11 L13,12 L14,12 L14,13 L15,13 L15,14 L16,14 L16,15 L17,15 L17,16 L18,16 L18,17 L19,17 L19,18 L20,18 L20,19 L21,19 L21,20 L22,20 L22,21 L23,21 L23,22 L24,22 L24,23 L25,23 L25,24 L26,24 L26,25 L27,25 L27,26 L28,26 L28,27 L29,27 L29,28 L30,28 L30,29 L31,29 L31,30 L32,30 L32,31 L33,31 L33,32 L34,32 L34,33 L35,33 L35,34 L36,34 L36,35 L37,35 L37,36 L38,36 L38,37 L39,37 L39,38 L40,38 L40,39 L41,39 L41,40 L42,40 L42,58 L41,58 L41,57 L40,57 L40,56 L39,56 L39,55 L38,55 L38,54 L37,54 L37,53 L36,53 L36,52 L35,52 L35,51 L34,51 L34,50 L33,50 L33,49 L32,49 L32,48 L31,48 L31,47 L30,47 L30,46 L29,46 L29,45 L28,45 L28,44 L27,44 L27,43 L26,43 L26,42 L25,42 L25,41 L24,41 L24,40 L23,40 L23,39 L22,39 L22,38 L21,38 L21,37 L20,37 L20,36 L19,36 L19,35 L18,35 L18,34 L17,34 L17,33 L16,33 L16,32 L15,32 L15,31 L14,31 L14,30 L13,30 L13,29 L12,29 L12,28 L11,28 L11,27 L10,27 L10,26 L9,26 L9,25 L8,25 L8,24 L7,24 L7,23 L6,23 L6,22 L5,22 L5,21 L4,21 L4,20 L3,20 L3,19 L2,19 L2,18 L1,18 L1,17 L0,17 L0,16 L-1,16 L-1,15 L-2,15 L-2,14 L-3,14 L-3,13 L-4,13 L-4,12 L-5,12 L-5,11 L-6,11 L-6,10 L-7,10 L-7,9 L-8,9 L-8,8 L-7,8 L-7,7 L-6,7 L-6,6 L-5,6 L-5,5 L-4,5 L-4,4 L-3,4 L-3,3 L-2,3 L-2,2 L-1,2 L-1,1 L0,1 Z "
     fill="#FAFCFC"
     transform="translate(100,314)"
     id="path21" />
  <path
     d="M0,0 L1,0 L1,1 L2,1 L2,2 L3,2 L3,3 L4,3 L4,4 L5,4 L5,5 L6,5 L6,6 L7,6 L7,7 L8,7 L8,8 L9,8 L9,9 L10,9 L10,10 L11,10 L11,11 L12,11 L12,12 L13,12 L13,13 L14,13 L14,14 L15,14 L15,15 L16,15 L16,16 L17,16 L17,17 L18,17 L18,18 L19,18 L19,19 L20,19 L20,20 L21,20 L21,21 L22,21 L22,22 L23,22 L23,23 L24,23 L24,24 L25,24 L25,25 L26,25 L26,26 L27,26 L27,27 L28,27 L28,29 L27,29 L27,30 L26,30 L26,31 L25,31 L25,32 L24,32 L24,33 L23,33 L23,34 L22,34 L22,35 L21,35 L21,36 L20,36 L20,37 L19,37 L19,38 L18,38 L18,39 L17,39 L17,40 L16,40 L16,41 L15,41 L15,42 L14,42 L14,43 L13,43 L13,44 L12,44 L12,45 L11,45 L11,46 L10,46 L10,47 L9,47 L9,48 L8,48 L8,49 L7,49 L7,50 L6,50 L6,51 L5,51 L5,52 L4,52 L4,53 L3,53 L3,54 L2,54 L2,56 L0,56 Z "
     fill="#FDFBF6"
     transform="translate(313,228)"
     id="path22" />
  <path
     d="M0,0 L1,0 L1,1 L2,1 L2,2 L3,2 L3,3 L4,3 L4,4 L5,4 L5,5 L6,5 L6,6 L7,6 L7,7 L8,7 L8,8 L9,8 L9,9 L8,9 L8,10 L7,10 L7,11 L6,11 L6,12 L5,12 L5,13 L4,13 L4,14 L3,14 L3,15 L2,15 L2,16 L1,16 L1,17 L0,17 L0,18 L-1,18 L-1,19 L-2,19 L-2,20 L-3,20 L-3,21 L-4,21 L-4,22 L-5,22 L-5,23 L-6,23 L-6,24 L-7,24 L-7,25 L-8,25 L-8,26 L-9,26 L-9,27 L-10,27 L-10,28 L-11,28 L-11,29 L-12,29 L-12,30 L-13,30 L-13,31 L-14,31 L-14,32 L-15,32 L-15,33 L-16,33 L-16,34 L-17,34 L-17,35 L-18,35 L-18,36 L-19,36 L-19,37 L-20,37 L-20,38 L-21,38 L-21,39 L-22,39 L-22,40 L-23,40 L-23,41 L-24,41 L-24,42 L-25,42 L-25,43 L-26,43 L-26,44 L-27,44 L-27,45 L-28,45 L-28,46 L-29,46 L-29,47 L-30,47 L-30,48 L-31,48 L-31,49 L-32,49 L-32,50 L-33,50 L-33,51 L-34,51 L-34,52 L-35,52 L-35,53 L-36,53 L-36,54 L-37,54 L-37,55 L-38,55 L-38,56 L-39,56 L-39,57 L-40,57 L-40,40 L-39,40 L-39,39 L-38,39 L-38,38 L-37,38 L-37,37 L-36,37 L-36,36 L-35,36 L-35,35 L-34,35 L-34,34 L-33,34 L-33,33 L-32,33 L-32,32 L-31,32 L-31,31 L-30,31 L-30,30 L-29,30 L-29,29 L-28,29 L-28,28 L-27,28 L-27,27 L-26,27 L-26,26 L-25,26 L-25,25 L-24,25 L-24,24 L-23,24 L-23,23 L-22,23 L-22,22 L-21,22 L-21,21 L-20,21 L-20,20 L-19,20 L-19,19 L-18,19 L-18,18 L-17,18 L-17,17 L-16,17 L-16,16 L-15,16 L-15,15 L-14,15 L-14,14 L-13,14 L-13,13 L-12,13 L-12,12 L-11,12 L-11,11 L-10,11 L-10,10 L-9,10 L-9,9 L-8,9 L-8,8 L-7,8 L-7,7 L-6,7 L-6,6 L-5,6 L-5,5 L-4,5 L-4,4 L-3,4 L-3,3 L-2,3 L-2,2 L-1,2 L-1,1 L0,1 Z "
     fill="#FCFDFD"
     transform="translate(196,314)"
     id="path23" />
  <path
     d="M0,0 L3,0 L3,1 L4,1 L4,2 L5,2 L5,3 L6,3 L6,4 L7,4 L7,5 L8,5 L8,6 L9,6 L9,7 L10,7 L10,8 L11,8 L11,9 L12,9 L12,10 L13,10 L13,11 L14,11 L14,12 L15,12 L15,13 L16,13 L16,14 L17,14 L17,15 L18,15 L18,16 L19,16 L19,17 L20,17 L20,18 L21,18 L21,19 L22,19 L22,20 L23,20 L23,22 L24,22 L24,23 L25,23 L25,24 L26,24 L26,25 L27,25 L27,26 L28,26 L28,27 L29,27 L29,28 L30,28 L30,29 L31,29 L31,30 L32,30 L32,31 L33,31 L33,32 L34,32 L34,33 L35,33 L35,34 L36,34 L36,35 L37,35 L37,36 L38,36 L38,37 L39,37 L39,38 L40,38 L40,39 L41,39 L41,40 L42,40 L42,41 L43,41 L43,56 L42,56 L42,55 L41,55 L41,54 L40,54 L40,53 L39,53 L39,52 L38,52 L38,51 L37,51 L37,50 L36,50 L36,49 L35,49 L35,48 L34,48 L34,47 L33,47 L33,46 L32,46 L32,45 L31,45 L31,44 L30,44 L30,43 L29,43 L29,42 L28,42 L28,41 L27,41 L27,40 L26,40 L26,39 L25,39 L25,38 L24,38 L24,37 L23,37 L23,36 L22,36 L22,35 L21,35 L21,34 L20,34 L20,33 L19,33 L19,32 L18,32 L18,31 L17,31 L17,30 L16,30 L16,29 L15,29 L15,28 L14,28 L14,27 L13,27 L13,26 L12,26 L12,25 L11,25 L11,24 L10,24 L10,23 L9,23 L9,22 L8,22 L8,21 L7,21 L7,20 L6,20 L6,19 L5,19 L5,18 L4,18 L4,17 L3,17 L3,16 L2,16 L2,15 L1,15 L1,14 L0,14 L0,13 L-1,13 L-1,12 L-2,12 L-2,11 L-3,11 L-3,10 L-4,10 L-4,9 L-5,9 L-5,8 L-6,8 L-6,6 L-5,6 L-5,5 L-4,5 L-4,4 L-3,4 L-3,3 L-2,3 L-2,2 L-1,2 L-1,1 L0,1 Z "
     fill="#F7FAFA"
     transform="translate(200,417)"
     id="path24" />
  <path
     d="M0,0 L1,0 L1,52 L0,52 L0,51 L-1,51 L-1,50 L-2,50 L-2,49 L-3,49 L-3,48 L-4,48 L-4,47 L-5,47 L-5,46 L-6,46 L-6,45 L-7,45 L-7,44 L-8,44 L-8,43 L-9,43 L-9,42 L-10,42 L-10,41 L-11,41 L-11,40 L-12,40 L-12,39 L-13,39 L-13,38 L-14,38 L-14,37 L-15,37 L-15,36 L-16,36 L-16,35 L-17,35 L-17,34 L-18,34 L-18,33 L-19,33 L-19,32 L-20,32 L-20,31 L-21,31 L-21,30 L-22,30 L-22,29 L-23,29 L-23,28 L-24,28 L-24,27 L-25,27 L-25,25 L-24,25 L-24,24 L-23,24 L-23,23 L-22,23 L-22,22 L-21,22 L-21,21 L-20,21 L-20,20 L-19,20 L-19,19 L-18,19 L-18,18 L-17,18 L-17,17 L-16,17 L-16,16 L-15,16 L-15,15 L-14,15 L-14,14 L-13,14 L-13,13 L-12,13 L-12,12 L-11,12 L-11,11 L-10,11 L-10,10 L-9,10 L-9,9 L-8,9 L-8,8 L-7,8 L-7,7 L-6,7 L-6,6 L-5,6 L-5,5 L-4,5 L-4,4 L-3,4 L-3,3 L-2,3 L-2,2 L-1,2 L-1,1 L0,1 Z "
     fill="#FBFAF6"
     transform="translate(184,230)"
     id="path25" />
  <path
     d="M0,0 L2,0 L2,1 L3,1 L3,2 L4,2 L4,3 L5,3 L5,4 L6,4 L6,5 L7,5 L7,6 L8,6 L8,8 L7,8 L7,9 L6,9 L6,10 L5,10 L5,11 L4,11 L4,12 L3,12 L3,13 L2,13 L2,14 L1,14 L1,15 L0,15 L0,16 L-1,16 L-1,17 L-2,17 L-2,18 L-3,18 L-3,19 L-4,19 L-4,20 L-5,20 L-5,21 L-6,21 L-6,22 L-7,22 L-7,23 L-8,23 L-8,24 L-9,24 L-9,25 L-10,25 L-10,26 L-11,26 L-11,27 L-12,27 L-12,28 L-13,28 L-13,29 L-14,29 L-14,30 L-15,30 L-15,31 L-16,31 L-16,32 L-17,32 L-17,33 L-18,33 L-18,34 L-19,34 L-19,35 L-20,35 L-20,36 L-21,36 L-21,37 L-22,37 L-22,38 L-23,38 L-23,39 L-24,39 L-24,40 L-25,40 L-25,41 L-26,41 L-26,42 L-27,42 L-27,43 L-28,43 L-28,44 L-29,44 L-29,45 L-30,45 L-30,46 L-31,46 L-31,47 L-32,47 L-32,48 L-33,48 L-33,49 L-34,49 L-34,50 L-35,50 L-35,51 L-36,51 L-36,52 L-37,52 L-37,53 L-38,53 L-38,54 L-39,54 L-39,55 L-40,55 L-40,56 L-41,56 L-41,41 L-40,41 L-40,40 L-39,40 L-39,39 L-38,39 L-38,38 L-37,38 L-37,37 L-36,37 L-36,36 L-35,36 L-35,35 L-34,35 L-34,34 L-33,34 L-33,33 L-32,33 L-32,32 L-31,32 L-31,31 L-30,31 L-30,30 L-29,30 L-29,29 L-28,29 L-28,28 L-27,28 L-27,27 L-26,27 L-26,26 L-25,26 L-25,25 L-24,25 L-24,24 L-23,24 L-23,23 L-22,23 L-22,22 L-21,22 L-21,21 L-20,21 L-20,20 L-19,20 L-19,19 L-18,19 L-18,18 L-17,18 L-17,17 L-16,17 L-16,16 L-15,16 L-15,15 L-14,15 L-14,14 L-13,14 L-13,13 L-12,13 L-12,12 L-11,12 L-11,11 L-10,11 L-10,10 L-9,10 L-9,9 L-8,9 L-8,8 L-7,8 L-7,7 L-6,7 L-6,6 L-5,6 L-5,5 L-4,5 L-4,4 L-3,4 L-3,3 L-2,3 L-2,2 L-1,2 L-1,1 L0,1 Z "
     fill="#F7FAFA"
     transform="translate(298,417)"
     id="path26" />
  <path
     d="M0,0 L2,0 L2,1 L3,1 L3,2 L4,2 L4,3 L5,3 L5,4 L6,4 L6,5 L7,5 L7,6 L8,6 L8,7 L9,7 L9,8 L10,8 L10,9 L11,9 L11,11 L10,11 L10,12 L9,12 L9,13 L8,13 L8,14 L7,14 L7,15 L6,15 L6,16 L5,16 L5,17 L4,17 L4,18 L3,18 L3,19 L2,19 L2,20 L1,20 L1,21 L0,21 L0,22 L-1,22 L-1,23 L-2,23 L-2,24 L-3,24 L-3,25 L-4,25 L-4,26 L-5,26 L-5,27 L-6,27 L-6,28 L-7,28 L-7,29 L-8,29 L-8,30 L-9,30 L-9,31 L-10,31 L-10,32 L-11,32 L-11,33 L-12,33 L-12,34 L-13,34 L-13,35 L-14,35 L-14,36 L-15,36 L-15,37 L-16,37 L-16,38 L-17,38 L-17,39 L-18,39 L-18,40 L-19,40 L-19,41 L-20,41 L-20,42 L-21,42 L-21,21 L-20,21 L-20,20 L-19,20 L-19,19 L-18,19 L-18,18 L-17,18 L-17,17 L-16,17 L-16,16 L-15,16 L-15,15 L-14,15 L-14,14 L-13,14 L-13,13 L-12,13 L-12,12 L-11,12 L-11,11 L-10,11 L-10,10 L-9,10 L-9,9 L-8,9 L-8,8 L-7,8 L-7,7 L-6,7 L-6,6 L-5,6 L-5,5 L-4,5 L-4,4 L-3,4 L-3,3 L-2,3 L-2,2 L-1,2 L-1,1 L0,1 Z "
     fill="#FDFDFD"
     transform="translate(278,397)"
     id="path27" />
  <path
     d="M0,0 L1,0 L1,1 L2,1 L2,2 L3,2 L3,3 L4,3 L4,4 L5,4 L5,5 L6,5 L6,6 L7,6 L7,7 L8,7 L8,8 L9,8 L9,9 L10,9 L10,10 L11,10 L11,11 L12,11 L12,12 L13,12 L13,13 L14,13 L14,14 L15,14 L15,15 L16,15 L16,16 L17,16 L17,17 L18,17 L18,18 L19,18 L19,19 L20,19 L20,20 L21,20 L21,21 L22,21 L22,42 L21,42 L21,41 L20,41 L20,40 L19,40 L19,39 L18,39 L18,38 L17,38 L17,37 L16,37 L16,36 L15,36 L15,35 L14,35 L14,34 L13,34 L13,33 L12,33 L12,32 L11,32 L11,31 L10,31 L10,30 L9,30 L9,29 L8,29 L8,28 L7,28 L7,27 L6,27 L6,26 L5,26 L5,25 L4,25 L4,24 L3,24 L3,23 L2,23 L2,22 L1,22 L1,21 L0,21 L0,20 L-1,20 L-1,19 L-2,19 L-2,18 L-3,18 L-3,17 L-4,17 L-4,16 L-5,16 L-5,15 L-6,15 L-6,14 L-7,14 L-7,13 L-8,13 L-8,12 L-9,12 L-9,11 L-10,11 L-10,10 L-9,10 L-9,9 L-8,9 L-8,8 L-7,8 L-7,7 L-6,7 L-6,6 L-5,6 L-5,5 L-4,5 L-4,4 L-3,4 L-3,3 L-2,3 L-2,2 L-1,2 L-1,1 L0,1 Z "
     fill="#FDFDFD"
     transform="translate(221,396)"
     id="path28" />
  <path
     d="M0,0 L10,0 L10,1 L16,1 L16,2 L18,2 L18,3 L20,3 L20,4 L23,4 L23,5 L25,5 L25,6 L26,6 L26,7 L28,7 L28,8 L29,8 L29,9 L30,9 L30,10 L32,10 L32,11 L33,11 L33,12 L34,12 L34,13 L35,13 L35,15 L36,15 L36,16 L37,16 L37,17 L38,17 L38,19 L39,19 L39,21 L40,21 L40,22 L41,22 L41,25 L42,25 L42,27 L43,27 L43,30 L44,30 L44,49 L43,49 L43,53 L42,53 L42,55 L41,55 L41,57 L40,57 L40,59 L39,59 L39,61 L38,61 L38,62 L37,62 L37,64 L36,64 L36,65 L35,65 L35,66 L34,66 L34,67 L33,67 L33,68 L32,68 L32,69 L31,69 L31,70 L30,70 L30,71 L29,71 L29,72 L27,72 L27,73 L26,73 L26,74 L24,74 L24,75 L22,75 L22,76 L20,76 L20,77 L17,77 L17,78 L13,78 L13,79 L-1,79 L-1,78 L11,78 L11,77 L15,77 L15,76 L18,76 L18,75 L20,75 L20,74 L19,74 L19,73 L18,73 L18,72 L17,72 L17,71 L16,71 L16,69 L17,69 L17,68 L19,68 L19,67 L21,67 L21,66 L23,66 L23,65 L24,65 L24,64 L25,64 L25,63 L26,63 L26,62 L28,62 L28,63 L29,63 L29,64 L30,64 L30,65 L31,65 L31,66 L33,66 L33,65 L34,65 L34,64 L35,64 L35,62 L36,62 L36,61 L37,61 L37,60 L38,60 L38,57 L39,57 L39,56 L40,56 L40,54 L41,54 L41,50 L42,50 L42,46 L43,46 L43,33 L42,33 L42,30 L41,30 L41,26 L40,26 L40,24 L39,24 L39,22 L38,22 L38,20 L37,20 L37,19 L36,19 L36,17 L35,17 L35,16 L34,16 L34,15 L33,15 L33,14 L32,14 L32,12 L30,12 L30,11 L29,11 L29,10 L28,10 L28,9 L27,9 L27,8 L25,8 L25,7 L23,7 L23,6 L21,6 L21,5 L19,5 L19,4 L16,4 L16,3 L13,3 L13,2 L-1,2 L-1,3 L-6,3 L-6,4 L-9,4 L-9,5 L-11,5 L-11,6 L-13,6 L-13,7 L-15,7 L-15,8 L-16,8 L-16,9 L-18,9 L-18,10 L-19,10 L-19,11 L-20,11 L-20,12 L-21,12 L-21,13 L-22,13 L-22,14 L-23,14 L-23,15 L-24,15 L-24,16 L-25,16 L-25,18 L-26,18 L-26,19 L-27,19 L-27,21 L-28,21 L-28,22 L-29,22 L-29,25 L-30,25 L-30,27 L-31,27 L-31,30 L-32,30 L-32,36 L-33,36 L-33,43 L-32,43 L-32,49 L-31,49 L-31,53 L-30,53 L-30,55 L-29,55 L-29,57 L-28,57 L-28,59 L-27,59 L-27,61 L-26,61 L-26,62 L-25,62 L-25,64 L-24,64 L-24,65 L-23,65 L-23,66 L-20,66 L-20,65 L-19,65 L-19,64 L-18,64 L-18,63 L-17,63 L-17,62 L-16,62 L-16,63 L-15,63 L-15,64 L-14,64 L-14,65 L-13,65 L-13,66 L-11,66 L-11,67 L-9,67 L-9,68 L-7,68 L-7,69 L-5,69 L-5,70 L-6,70 L-6,71 L-7,71 L-7,72 L-8,72 L-8,73 L-9,73 L-9,74 L-10,74 L-10,75 L-9,75 L-9,76 L-12,76 L-12,75 L-14,75 L-14,74 L-16,74 L-16,73 L-17,73 L-17,72 L-19,72 L-19,71 L-20,71 L-20,70 L-21,70 L-21,69 L-22,69 L-22,68 L-23,68 L-23,67 L-24,67 L-24,66 L-25,66 L-25,65 L-26,65 L-26,63 L-27,63 L-27,62 L-28,62 L-28,60 L-29,60 L-29,59 L-30,59 L-30,57 L-31,57 L-31,55 L-32,55 L-32,52 L-33,52 L-33,49 L-34,49 L-34,31 L-33,31 L-33,27 L-32,27 L-32,25 L-31,25 L-31,23 L-30,23 L-30,21 L-29,21 L-29,19 L-28,19 L-28,18 L-27,18 L-27,16 L-26,16 L-26,15 L-25,15 L-25,14 L-24,14 L-24,13 L-23,13 L-23,12 L-22,12 L-22,11 L-21,11 L-21,10 L-20,10 L-20,9 L-19,9 L-19,8 L-18,8 L-18,7 L-16,7 L-16,6 L-15,6 L-15,5 L-13,5 L-13,4 L-11,4 L-11,3 L-9,3 L-9,2 L-5,2 L-5,1 L0,1 Z "
     fill="#424C4C"
     transform="translate(245,105)"
     id="path29" />
  <path
     d="M0,0 L1,0 L1,1 L2,1 L2,2 L3,2 L3,3 L4,3 L4,4 L5,4 L5,5 L6,5 L6,6 L7,6 L7,7 L8,7 L8,8 L9,8 L9,9 L10,9 L10,10 L11,10 L11,11 L12,11 L12,12 L13,12 L13,13 L14,13 L14,14 L15,14 L15,15 L16,15 L16,16 L17,16 L17,17 L18,17 L18,18 L19,18 L19,19 L20,19 L20,20 L21,20 L21,41 L20,41 L20,40 L19,40 L19,39 L18,39 L18,38 L17,38 L17,37 L16,37 L16,36 L15,36 L15,35 L14,35 L14,34 L13,34 L13,33 L12,33 L12,32 L11,32 L11,31 L10,31 L10,30 L9,30 L9,29 L8,29 L8,28 L7,28 L7,27 L6,27 L6,26 L5,26 L5,25 L4,25 L4,24 L3,24 L3,23 L2,23 L2,22 L1,22 L1,21 L0,21 L0,20 L-1,20 L-1,19 L-2,19 L-2,18 L-3,18 L-3,17 L-4,17 L-4,16 L-5,16 L-5,15 L-6,15 L-6,14 L-7,14 L-7,13 L-8,13 L-8,12 L-9,12 L-9,11 L-10,11 L-10,10 L-9,10 L-9,9 L-8,9 L-8,8 L-7,8 L-7,7 L-6,7 L-6,6 L-5,6 L-5,5 L-4,5 L-4,4 L-3,4 L-3,3 L-2,3 L-2,2 L-1,2 L-1,1 L0,1 Z "
     fill="#FAFCFC"
     transform="translate(121,293)"
     id="path30" />
  <path
     d="M0,0 L2,0 L2,1 L3,1 L3,2 L4,2 L4,3 L5,3 L5,4 L6,4 L6,5 L7,5 L7,6 L8,6 L8,7 L9,7 L9,8 L10,8 L10,9 L11,9 L11,10 L12,10 L12,11 L13,11 L13,12 L14,12 L14,13 L15,13 L15,14 L16,14 L16,15 L17,15 L17,16 L18,16 L18,17 L19,17 L19,18 L21,18 L21,40 L20,40 L20,39 L19,39 L19,38 L18,38 L18,37 L17,37 L17,36 L16,36 L16,35 L15,35 L15,34 L14,34 L14,33 L13,33 L13,32 L12,32 L12,31 L11,31 L11,30 L10,30 L10,29 L9,29 L9,28 L8,28 L8,27 L7,27 L7,26 L6,26 L6,25 L5,25 L5,24 L4,24 L4,23 L3,23 L3,22 L2,22 L2,21 L1,21 L1,20 L0,20 L0,19 L-1,19 L-1,18 L-2,18 L-2,17 L-3,17 L-3,16 L-4,16 L-4,15 L-5,15 L-5,14 L-6,14 L-6,13 L-7,13 L-7,12 L-8,12 L-8,11 L-9,11 L-9,9 L-8,9 L-8,8 L-7,8 L-7,7 L-6,7 L-6,6 L-5,6 L-5,5 L-4,5 L-4,4 L-3,4 L-3,3 L-2,3 L-2,2 L-1,2 L-1,1 L0,1 Z "
     fill="#F9FBFB"
     transform="translate(324,293)"
     id="path31" />
  <path
     d="M0,0 L2,0 L2,1 L3,1 L3,2 L4,2 L4,3 L5,3 L5,4 L6,4 L6,5 L7,5 L7,6 L8,6 L8,7 L9,7 L9,8 L10,8 L10,9 L11,9 L11,11 L10,11 L10,12 L9,12 L9,13 L8,13 L8,14 L7,14 L7,15 L6,15 L6,16 L5,16 L5,17 L4,17 L4,18 L3,18 L3,19 L2,19 L2,20 L1,20 L1,21 L0,21 L0,22 L-1,22 L-1,23 L-2,23 L-2,24 L-3,24 L-3,25 L-4,25 L-4,26 L-5,26 L-5,27 L-6,27 L-6,28 L-7,28 L-7,29 L-8,29 L-8,30 L-9,30 L-9,31 L-10,31 L-10,32 L-11,32 L-11,33 L-12,33 L-12,34 L-13,34 L-13,35 L-14,35 L-14,36 L-15,36 L-15,37 L-16,37 L-16,38 L-17,38 L-17,39 L-18,39 L-18,40 L-19,40 L-19,19 L-18,19 L-18,18 L-17,18 L-17,17 L-16,17 L-16,16 L-15,16 L-15,15 L-14,15 L-14,14 L-13,14 L-13,13 L-12,13 L-12,12 L-11,12 L-11,11 L-10,11 L-10,10 L-9,10 L-9,9 L-8,9 L-8,8 L-7,8 L-7,7 L-6,7 L-6,6 L-5,6 L-5,5 L-4,5 L-4,4 L-3,4 L-3,3 L-2,3 L-2,2 L-1,2 L-1,1 L0,1 Z "
     fill="#FDFDFD"
     transform="translate(175,294)"
     id="path32" />
  <path
     d="M0,0 L2,0 L2,1 L3,1 L3,2 L4,2 L4,3 L5,3 L5,4 L6,4 L6,5 L7,5 L7,6 L8,6 L8,7 L9,7 L9,8 L10,8 L10,9 L11,9 L11,11 L10,11 L10,12 L9,12 L9,13 L8,13 L8,14 L7,14 L7,15 L6,15 L6,16 L5,16 L5,17 L4,17 L4,18 L3,18 L3,19 L2,19 L2,20 L1,20 L1,21 L0,21 L0,22 L-1,22 L-1,23 L-2,23 L-2,24 L-3,24 L-3,25 L-4,25 L-4,26 L-5,26 L-5,27 L-6,27 L-6,28 L-7,28 L-7,29 L-8,29 L-8,30 L-9,30 L-9,31 L-10,31 L-10,32 L-11,32 L-11,33 L-12,33 L-12,34 L-13,34 L-13,35 L-14,35 L-14,36 L-15,36 L-15,37 L-16,37 L-16,38 L-17,38 L-17,39 L-18,39 L-18,18 L-17,18 L-17,17 L-16,17 L-16,16 L-15,16 L-15,15 L-14,15 L-14,14 L-13,14 L-13,13 L-12,13 L-12,12 L-11,12 L-11,11 L-10,11 L-10,10 L-9,10 L-9,9 L-8,9 L-8,8 L-7,8 L-7,7 L-6,7 L-6,6 L-5,6 L-5,5 L-4,5 L-4,4 L-3,4 L-3,3 L-2,3 L-2,2 L-1,2 L-1,1 L0,1 Z "
     fill="#FDFEFE"
     transform="translate(377,293)"
     id="path33" />
  <path
     d="M0,0 L1,0 L1,1 L2,1 L2,2 L3,2 L3,3 L4,3 L4,4 L5,4 L5,5 L6,5 L6,6 L7,6 L7,7 L8,7 L8,8 L9,8 L9,9 L10,9 L10,10 L11,10 L11,11 L12,11 L12,12 L13,12 L13,13 L12,13 L12,14 L11,14 L11,15 L10,15 L10,16 L9,16 L9,17 L8,17 L8,18 L7,18 L7,19 L6,19 L6,20 L5,20 L5,21 L4,21 L4,22 L3,22 L3,23 L2,23 L2,24 L-1,24 L-1,23 L-2,23 L-2,22 L-3,22 L-3,21 L-4,21 L-4,20 L-5,20 L-5,19 L-6,19 L-6,18 L-7,18 L-7,17 L-8,17 L-8,16 L-9,16 L-9,15 L-10,15 L-10,14 L-11,14 L-11,11 L-10,11 L-10,10 L-9,10 L-9,9 L-8,9 L-8,8 L-7,8 L-7,7 L-6,7 L-6,6 L-5,6 L-5,5 L-4,5 L-4,4 L-3,4 L-3,3 L-2,3 L-2,2 L-1,2 L-1,1 L0,1 Z "
     fill="#FDFBF6"
     transform="translate(147,142)"
     id="path34" />
  <path
     d="M0,0 L1,0 L1,1 L2,1 L2,2 L3,2 L3,3 L4,3 L4,4 L5,4 L5,5 L6,5 L6,6 L7,6 L7,7 L8,7 L8,8 L9,8 L9,9 L10,9 L10,10 L11,10 L11,11 L12,11 L12,12 L13,12 L13,13 L12,13 L12,14 L11,14 L11,15 L10,15 L10,16 L9,16 L9,17 L8,17 L8,18 L7,18 L7,19 L6,19 L6,20 L5,20 L5,21 L4,21 L4,22 L3,22 L3,23 L2,23 L2,24 L0,24 L0,23 L-1,23 L-1,22 L-2,22 L-2,21 L-3,21 L-3,20 L-4,20 L-4,19 L-5,19 L-5,18 L-6,18 L-6,17 L-7,17 L-7,16 L-8,16 L-8,15 L-9,15 L-9,14 L-10,14 L-10,13 L-11,13 L-11,11 L-10,11 L-10,10 L-9,10 L-9,9 L-8,9 L-8,8 L-7,8 L-7,7 L-6,7 L-6,6 L-5,6 L-5,5 L-4,5 L-4,4 L-3,4 L-3,3 L-2,3 L-2,2 L-1,2 L-1,1 L0,1 Z "
     fill="#FDFCF9"
     transform="translate(350,140)"
     id="path35" />
  <path
     d="M0,0 L3,0 L3,2 L4,2 L4,3 L5,3 L5,4 L6,4 L6,5 L7,5 L7,6 L8,6 L8,7 L9,7 L9,8 L10,8 L10,9 L11,9 L11,10 L12,10 L12,11 L13,11 L13,12 L12,12 L12,13 L11,13 L11,14 L10,14 L10,15 L9,15 L9,16 L8,16 L8,17 L7,17 L7,18 L6,18 L6,19 L5,19 L5,20 L4,20 L4,21 L3,21 L3,22 L2,22 L2,23 L0,23 L0,22 L-1,22 L-1,21 L-2,21 L-2,20 L-3,20 L-3,19 L-4,19 L-4,18 L-5,18 L-5,17 L-6,17 L-6,16 L-7,16 L-7,15 L-8,15 L-8,14 L-9,14 L-9,13 L-10,13 L-10,12 L-11,12 L-11,11 L-10,11 L-10,10 L-9,10 L-9,9 L-8,9 L-8,8 L-7,8 L-7,7 L-6,7 L-6,6 L-5,6 L-5,5 L-4,5 L-4,4 L-3,4 L-3,3 L-2,3 L-2,2 L-1,2 L-1,1 L0,1 Z "
     fill="#FEFEFD"
     transform="translate(248,39)"
     id="path36" />
  <path
     d="M0,0 L2,0 L2,1 L13,1 L13,0 L14,0 L14,7 L13,7 L13,8 L1,8 L1,166 L-1,166 L-1,165 L0,165 L0,9 L-2,9 L-2,8 L-6,8 L-6,7 L-8,7 L-8,6 L-7,6 L-7,5 L-6,5 L-6,6 L-2,6 L-2,7 L0,7 Z "
     fill="#438576"
     transform="translate(243,175)"
     id="path37" />
  <path
     d="M0,0 L1,0 L1,16 L0,16 L0,20 L-1,20 L-1,22 L-2,22 L-2,24 L-3,24 L-3,26 L-4,26 L-4,28 L-5,28 L-5,29 L-6,29 L-6,31 L-7,31 L-7,32 L-8,32 L-8,33 L-9,33 L-9,34 L-10,34 L-10,35 L-11,35 L-11,36 L-12,36 L-12,37 L-13,37 L-13,38 L-14,38 L-14,39 L-16,39 L-16,40 L-17,40 L-17,41 L-19,41 L-19,42 L-21,42 L-21,43 L-23,43 L-23,44 L-26,44 L-26,45 L-30,45 L-30,46 L-44,46 L-44,45 L-32,45 L-32,44 L-28,44 L-28,43 L-25,43 L-25,42 L-23,42 L-23,41 L-24,41 L-24,40 L-25,40 L-25,39 L-26,39 L-26,38 L-27,38 L-27,36 L-26,36 L-26,35 L-24,35 L-24,34 L-22,34 L-22,33 L-20,33 L-20,32 L-19,32 L-19,31 L-18,31 L-18,30 L-17,30 L-17,29 L-15,29 L-15,30 L-14,30 L-14,31 L-13,31 L-13,32 L-12,32 L-12,33 L-10,33 L-10,32 L-9,32 L-9,31 L-8,31 L-8,29 L-7,29 L-7,28 L-6,28 L-6,27 L-5,27 L-5,24 L-4,24 L-4,23 L-3,23 L-3,21 L-2,21 L-2,17 L-1,17 L-1,13 L0,13 Z "
     fill="#313F44"
     transform="translate(288,138)"
     id="path38" />
  <path
     d="M0,0 L1,0 L1,1 L2,1 L2,2 L3,2 L3,3 L4,3 L4,4 L5,4 L5,5 L6,5 L6,6 L7,6 L7,7 L8,7 L8,8 L9,8 L9,9 L10,9 L10,10 L11,10 L11,11 L12,11 L12,12 L11,12 L11,13 L10,13 L10,14 L9,14 L9,15 L8,15 L8,16 L7,16 L7,17 L6,17 L6,18 L5,18 L5,19 L4,19 L4,20 L3,20 L3,21 L2,21 L2,22 L1,22 L1,23 L0,23 Z "
     fill="#FCFDFD"
     transform="translate(257,375)"
     id="path39" />
  <path
     d="M0,0 L5,0 L5,6 L4,6 L4,7 L0,7 L0,8 L-2,8 L-2,9 L-4,9 L-4,10 L-6,10 L-6,11 L-7,11 L-7,12 L-8,12 L-8,13 L-10,13 L-10,14 L-11,14 L-11,15 L-12,15 L-12,14 L-13,14 L-13,13 L-14,13 L-14,12 L-15,12 L-15,11 L-16,11 L-16,10 L-15,10 L-15,9 L-14,9 L-14,8 L-13,8 L-13,7 L-12,7 L-12,6 L-10,6 L-10,5 L-9,5 L-9,4 L-7,4 L-7,3 L-5,3 L-5,2 L-3,2 L-3,1 L0,1 Z "
     fill="#F9F6F0"
     transform="translate(239,108)"
     id="path40" />
  <path
     d="M0,0 L6,0 L6,1 L9,1 L9,2 L11,2 L11,3 L13,3 L13,4 L15,4 L15,5 L17,5 L17,6 L18,6 L18,7 L19,7 L19,8 L20,8 L20,9 L21,9 L21,10 L20,10 L20,11 L19,11 L19,12 L18,12 L18,13 L17,13 L17,14 L16,14 L16,13 L15,13 L15,12 L13,12 L13,11 L12,11 L12,10 L10,10 L10,9 L8,9 L8,8 L5,8 L5,7 L3,7 L3,6 L0,6 Z "
     fill="#FBFAF6"
     transform="translate(255,108)"
     id="path41" />
  <path
     d="M0,0 L1,0 L1,1 L2,1 L2,3 L3,3 L3,5 L4,5 L4,9 L5,9 L5,12 L6,12 L6,21 L-1,21 L-1,12 L-2,12 L-2,8 L-3,8 L-3,6 L-4,6 L-4,4 L-3,4 L-3,3 L-2,3 L-2,2 L-1,2 L-1,1 L0,1 Z "
     fill="#F8F5EE"
     transform="translate(282,126)"
     id="path42" />
  <path
     d="M0,0 L1,0 L1,22 L0,22 L0,21 L-1,21 L-1,20 L-2,20 L-2,19 L-3,19 L-3,18 L-4,18 L-4,17 L-5,17 L-5,16 L-6,16 L-6,15 L-7,15 L-7,14 L-8,14 L-8,13 L-9,13 L-9,12 L-10,12 L-10,10 L-9,10 L-9,9 L-8,9 L-8,8 L-7,8 L-7,7 L-6,7 L-6,6 L-5,6 L-5,5 L-4,5 L-4,4 L-3,4 L-3,3 L-2,3 L-2,2 L-1,2 L-1,1 L0,1 Z "
     fill="#FBFCFC"
     transform="translate(242,375)"
     id="path43" />
  <path
     d="M0,0 L1,0 L1,1 L2,1 L2,2 L3,2 L3,3 L4,3 L4,4 L5,4 L5,7 L4,7 L4,10 L3,10 L3,21 L-3,21 L-3,20 L-4,20 L-4,13 L-3,13 L-3,7 L-2,7 L-2,4 L-1,4 L-1,2 L0,2 Z "
     fill="#F9F7F4"
     transform="translate(216,128)"
     id="path44" />
  <path
     d="M0,0 L1,0 L1,20 L0,20 L0,19 L-1,19 L-1,18 L-2,18 L-2,17 L-3,17 L-3,16 L-4,16 L-4,15 L-5,15 L-5,14 L-6,14 L-6,13 L-7,13 L-7,12 L-8,12 L-8,11 L-9,11 L-9,9 L-8,9 L-8,8 L-7,8 L-7,7 L-6,7 L-6,6 L-5,6 L-5,5 L-4,5 L-4,4 L-3,4 L-3,3 L-2,3 L-2,2 L-1,2 L-1,1 L0,1 Z "
     fill="#F0F6F6"
     transform="translate(141,273)"
     id="path45" />
  <path
     d="M0,0 L1,0 L1,1 L2,1 L2,2 L3,2 L3,3 L4,3 L4,4 L5,4 L5,5 L6,5 L6,6 L7,6 L7,7 L8,7 L8,8 L9,8 L9,9 L10,9 L10,11 L9,11 L9,12 L8,12 L8,13 L7,13 L7,14 L6,14 L6,15 L5,15 L5,16 L4,16 L4,17 L3,17 L3,18 L2,18 L2,19 L0,19 Z "
     fill="#F7FAFA"
     transform="translate(156,274)"
     id="path46" />
  <path
     d="M0,0 L10,0 L10,1 L16,1 L16,2 L18,2 L18,3 L20,3 L20,4 L23,4 L23,5 L25,5 L25,6 L26,6 L26,7 L28,7 L28,8 L29,8 L29,9 L30,9 L30,10 L32,10 L32,11 L33,11 L33,12 L34,12 L34,13 L35,13 L35,15 L36,15 L36,16 L37,16 L37,17 L38,17 L38,19 L39,19 L39,21 L40,21 L40,22 L41,22 L41,25 L42,25 L42,27 L43,27 L43,30 L44,30 L44,33 L42,33 L42,30 L41,30 L41,26 L40,26 L40,24 L39,24 L39,22 L38,22 L38,20 L37,20 L37,19 L36,19 L36,17 L35,17 L35,16 L34,16 L34,15 L33,15 L33,14 L32,14 L32,12 L30,12 L30,11 L29,11 L29,10 L28,10 L28,9 L27,9 L27,8 L25,8 L25,7 L23,7 L23,6 L21,6 L21,5 L19,5 L19,4 L16,4 L16,3 L13,3 L13,2 L-3,2 L-3,1 L0,1 Z "
     fill="#4D514C"
     transform="translate(245,105)"
     id="path47" />
  <path
     d="M0,0 L1,0 L1,19 L0,19 L0,18 L-1,18 L-1,17 L-2,17 L-2,16 L-3,16 L-3,15 L-4,15 L-4,14 L-5,14 L-5,13 L-6,13 L-6,12 L-7,12 L-7,11 L-8,11 L-8,10 L-9,10 L-9,9 L-8,9 L-8,8 L-7,8 L-7,7 L-6,7 L-6,6 L-5,6 L-5,5 L-4,5 L-4,4 L-3,4 L-3,3 L-2,3 L-2,2 L-1,2 L-1,1 L0,1 Z "
     fill="#ECF4F3"
     transform="translate(344,273)"
     id="path48" />
  <path
     d="M0,0 L2,0 L2,1 L3,1 L3,2 L4,2 L4,3 L5,3 L5,4 L6,4 L6,5 L5,5 L5,6 L4,6 L4,7 L3,7 L3,8 L1,8 L1,9 L0,9 L0,10 L-2,10 L-2,11 L-3,11 L-3,12 L-5,12 L-5,13 L-6,13 L-6,12 L-7,12 L-7,11 L-8,11 L-8,10 L-9,10 L-9,9 L-10,9 L-10,7 L-9,7 L-9,6 L-7,6 L-7,5 L-5,5 L-5,4 L-3,4 L-3,3 L-2,3 L-2,2 L-1,2 L-1,1 L0,1 Z "
     fill="#18786E"
     transform="translate(271,167)"
     id="path49" />
  <path
     d="M0,0 L1,0 L1,1 L2,1 L2,2 L3,2 L3,3 L4,3 L4,4 L6,4 L6,5 L8,5 L8,6 L10,6 L10,7 L12,7 L12,8 L11,8 L11,9 L10,9 L10,10 L9,10 L9,11 L8,11 L8,12 L4,12 L4,11 L3,11 L3,10 L1,10 L1,9 L0,9 L0,8 L-2,8 L-2,7 L-3,7 L-3,6 L-4,6 L-4,4 L-3,4 L-3,3 L-2,3 L-2,2 L-1,2 L-1,1 L0,1 Z "
     fill="#13756C"
     transform="translate(228,167)"
     id="path50" />
  <path
     d="M0,0 L7,0 L7,3 L6,3 L6,4 L5,4 L5,7 L4,7 L4,8 L3,8 L3,9 L2,9 L2,11 L1,11 L1,12 L0,12 L0,13 L-2,13 L-2,12 L-3,12 L-3,11 L-4,11 L-4,10 L-5,10 L-5,9 L-6,9 L-6,8 L-5,8 L-5,7 L-4,7 L-4,6 L-3,6 L-3,5 L-2,5 L-2,3 L-1,3 L-1,2 L0,2 Z "
     fill="#F9F8F6"
     transform="translate(278,158)"
     id="path51" />
  <path
     d="M0,0 L2,0 L2,1 L13,1 L13,0 L14,0 L14,7 L0,7 Z "
     fill="#14776D"
     transform="translate(243,175)"
     id="path52" />
  <path
     d="M0,0 L1,0 L1,1 L2,1 L2,2 L3,2 L3,3 L4,3 L4,4 L5,4 L5,5 L6,5 L6,6 L7,6 L7,7 L8,7 L8,8 L9,8 L9,9 L8,9 L8,10 L7,10 L7,11 L6,11 L6,12 L5,12 L5,13 L4,13 L4,14 L3,14 L3,15 L2,15 L2,16 L1,16 L1,17 L0,17 Z "
     fill="#FEFEFE"
     transform="translate(359,274)"
     id="path53" />
  <path
     d="M0,0 L7,0 L7,1 L8,1 L8,3 L9,3 L9,4 L10,4 L10,5 L11,5 L11,7 L10,7 L10,8 L9,8 L9,9 L8,9 L8,10 L7,10 L7,11 L6,11 L6,10 L5,10 L5,9 L4,9 L4,7 L3,7 L3,6 L2,6 L2,4 L1,4 L1,2 L0,2 Z "
     fill="#F9F8F5"
     transform="translate(216,160)"
     id="path54" />
  <path
     d="M0,0 L1,0 L1,12 L0,12 L0,11 L-1,11 L-1,10 L-2,10 L-2,9 L-3,9 L-3,8 L-4,8 L-4,7 L-5,7 L-5,5 L-4,5 L-4,4 L-3,4 L-3,3 L-2,3 L-2,2 L-1,2 L-1,1 L0,1 Z "
     fill="#FBF6EC"
     transform="translate(242,248)"
     id="path55" />
  <path
     d="M0,0 L4,0 L4,1 L5,1 L5,2 L6,2 L6,3 L7,3 L7,4 L8,4 L8,5 L6,5 L6,6 L3,6 L3,7 L0,7 Z "
     fill="#F7F9F9"
     transform="translate(257,175)"
     id="path56" />
  <path
     d="M0,0 L4,0 L4,7 L2,7 L2,6 L-2,6 L-2,5 L-4,5 L-4,4 L-3,4 L-3,3 L-2,3 L-2,2 L-1,2 L-1,1 L0,1 Z "
     fill="#F7F9F9"
     transform="translate(239,175)"
     id="path57" />
  <path
     d="M0,0 L1,0 L1,1 L2,1 L2,2 L3,2 L3,3 L4,3 L4,5 L3,5 L3,6 L2,6 L2,7 L1,7 L1,8 L0,8 Z "
     fill="#F1EFE2"
     transform="translate(257,250)"
     id="path58" />
  <path
     d="M0,0 L2,0 L2,1 L3,1 L3,2 L4,2 L4,5 L3,5 L3,4 L2,4 L2,3 L1,3 L1,1 L0,1 Z "
     fill="#4B462C"
     transform="translate(276,116)"
     id="path59" />
</svg>
